<svg width="14" height="10" viewBox="0 0 14 10" fill="none" xmlns="http://www.w3.org/2000/svg">
<path fill-rule="evenodd" clip-rule="evenodd" d="M0.333252 5.23893C0.333252 4.87074 0.631729 4.57227 0.999919 4.57227H12.9999C13.3681 4.57227 13.6666 4.87074 13.6666 5.23893C13.6666 5.60712 13.3681 5.9056 12.9999 5.9056H0.999919C0.631729 5.9056 0.333252 5.60712 0.333252 5.23893Z" fill="white"/>
<path fill-rule="evenodd" clip-rule="evenodd" d="M0.333252 1.23893C0.333252 0.870742 0.631729 0.572266 0.999919 0.572266H12.9999C13.3681 0.572266 13.6666 0.870742 13.6666 1.23893C13.6666 1.60712 13.3681 1.9056 12.9999 1.9056H0.999919C0.631729 1.9056 0.333252 1.60712 0.333252 1.23893Z" fill="white"/>
<path fill-rule="evenodd" clip-rule="evenodd" d="M0.333252 9.23893C0.333252 8.87074 0.631729 8.57227 0.999919 8.57227H12.9999C13.3681 8.57227 13.6666 8.87074 13.6666 9.23893C13.6666 9.60712 13.3681 9.9056 12.9999 9.9056H0.999919C0.631729 9.9056 0.333252 9.60712 0.333252 9.23893Z" fill="white"/>
</svg>