<svg width="22" height="18" viewBox="0 0 22 18" fill="none" xmlns="http://www.w3.org/2000/svg">
<path fill-rule="evenodd" clip-rule="evenodd" d="M2.10664 2.55395C2.27201 2.22693 2.6121 2 3.00006 2H19.0001C19.388 2 19.7281 2.22694 19.8935 2.55398L11.0001 8.77937L2.10664 2.55395ZM9.70873e-05 2.9852C-1.9024e-05 2.99354 -3.09209e-05 3.00188 6.10353e-05 3.01022V15C6.10353e-05 16.6523 1.34778 18 3.00006 18H19.0001C20.6523 18 22.0001 16.6523 22.0001 15V3.01402C22.0002 3.00256 22.0002 2.99109 22 2.97962C21.989 1.33665 20.6455 0 19.0001 0H3.00006C1.35271 0 0.00811569 1.33968 9.70873e-05 2.9852ZM20.0001 4.9207V15C20.0001 15.5477 19.5478 16 19.0001 16H3.00006C2.45235 16 2.00006 15.5477 2.00006 15V4.92066L10.4266 10.8193C10.7709 11.0603 11.2292 11.0603 11.5735 10.8193L20.0001 4.9207Z" fill="#BECAD7"/>
</svg>
