<svg width="14" height="22" viewBox="0 0 14 22" fill="none" xmlns="http://www.w3.org/2000/svg">
<path fill-rule="evenodd" clip-rule="evenodd" d="M5.2574 1.75736C6.3826 0.63214 7.9087 0 9.5 0H12.5C13.0523 0 13.5 0.44772 13.5 1V5C13.5 5.55228 13.0523 6 12.5 6H9.5V8H12.5C12.8079 8 13.0987 8.14187 13.2882 8.38459C13.4777 8.6273 13.5448 8.94379 13.4701 9.2425L12.4701 13.2425C12.3589 13.6877 11.9589 14 11.5 14H9.5V21C9.5 21.5523 9.0523 22 8.5 22H4.5C3.94772 22 3.5 21.5523 3.5 21V14H1.5C0.94772 14 0.5 13.5523 0.5 13V9C0.5 8.44772 0.94772 8 1.5 8H3.5V6C3.5 4.4087 4.1321 2.88258 5.2574 1.75736ZM9.5 2C8.4391 2 7.4217 2.42143 6.6716 3.17157C5.9214 3.92172 5.5 4.93913 5.5 6V9C5.5 9.5523 5.0523 10 4.5 10H2.5V12H4.5C5.0523 12 5.5 12.4477 5.5 13V20H7.5V13C7.5 12.4477 7.9477 12 8.5 12H10.7192L11.2192 10H8.5C7.9477 10 7.5 9.5523 7.5 9V6C7.5 5.46957 7.7107 4.96086 8.0858 4.58579C8.4609 4.21071 8.9696 4 9.5 4H11.5V2H9.5Z" fill="#0A0A0A" />
</svg>