<svg width="9" height="15" viewBox="0 0 9 15" fill="none" xmlns="http://www.w3.org/2000/svg">
<path fill-rule="evenodd" clip-rule="evenodd" d="M3.17157 1.17157C3.92172 0.421424 4.93913 0 6 0H8C8.3682 0 8.6667 0.298477 8.6667 0.666664V3.33333C8.6667 3.70152 8.3682 4 8 4H6V5.33333H8C8.2053 5.33333 8.3991 5.42791 8.5255 5.58972C8.6518 5.75153 8.6966 5.96253 8.6468 6.16169L7.9801 8.82835C7.9059 9.12513 7.6392 9.33333 7.3333 9.33333H6V14C6 14.3681 5.70152 14.6666 5.33333 14.6666H2.66667C2.29848 14.6666 2 14.3681 2 14V9.33333H0.66667C0.29848 9.33333 0 9.03485 0 8.66666V6C0 5.63181 0.29848 5.33333 0.66667 5.33333H2V4C2 2.93913 2.42143 1.92171 3.17157 1.17157ZM6 1.33333C5.29276 1.33333 4.61448 1.61428 4.11438 2.11438C3.61428 2.61448 3.33333 3.29275 3.33333 4V6C3.33333 6.36819 3.03486 6.66666 2.66667 6.66666H1.33333V8H2.66667C3.03486 8 3.33333 8.29847 3.33333 8.66666V13.3333H4.66667V8.66666C4.66667 8.29847 4.96514 8 5.33333 8H6.8128L7.1461 6.66666H5.33333C4.96514 6.66666 4.66667 6.36819 4.66667 6V4C4.66667 3.64637 4.80714 3.30724 5.05719 3.05719C5.30724 2.80714 5.64638 2.66666 6 2.66666H7.3333V1.33333H6Z" fill="#C1C7D0"/>
</svg>