<svg width="23" height="22" viewBox="0 0 23 22" fill="none" xmlns="http://www.w3.org/2000/svg">
<path fill-rule="evenodd" clip-rule="evenodd" d="M6.5 2C4.29086 2 2.5 3.79086 2.5 6V16C2.5 18.2091 4.29086 20 6.5 20H16.5C18.7091 20 20.5 18.2091 20.5 16V6C20.5 3.79086 18.7091 2 16.5 2H6.5ZM0.5 6C0.5 2.68629 3.18629 0 6.5 0H16.5C19.8137 0 22.5 2.68629 22.5 6V16C22.5 19.3137 19.8137 22 16.5 22H6.5C3.18629 22 0.5 19.3137 0.5 16V6Z" fill="#0A0A0A"/>
<path fill-rule="evenodd" clip-rule="evenodd" d="M11.9833 7.989C11.3591 7.89644 10.7216 8.00305 10.1615 8.29368C9.6014 8.5843 9.1472 9.0441 8.86351 9.6078C8.57982 10.1714 8.48107 10.8102 8.58132 11.4332C8.68157 12.0562 8.97571 12.6317 9.4219 13.0779C9.8681 13.5241 10.4436 13.8182 11.0666 13.9184C11.6896 14.0187 12.3283 13.9199 12.892 13.6363C13.4556 13.3526 13.9155 12.8984 14.2061 12.3383C14.4967 11.7782 14.6033 11.1407 14.5108 10.5165C14.4164 9.8798 14.1197 9.2904 13.6645 8.83523C13.2094 8.3801 12.62 8.08341 11.9833 7.989ZM9.2404 6.51843C10.1739 6.03406 11.2363 5.85637 12.2766 6.01063C13.3378 6.16799 14.3202 6.66246 15.0788 7.42101C15.8373 8.17957 16.3318 9.162 16.4891 10.2231C16.6434 11.2634 16.4657 12.3259 15.9813 13.2594C15.497 14.1929 14.7306 14.9499 13.7912 15.4227C12.8518 15.8955 11.7872 16.0601 10.7489 15.893C9.7105 15.726 8.75134 15.2357 8.00768 14.4921C7.26403 13.7484 6.7738 12.7892 6.60672 11.7509C6.43964 10.7126 6.60422 9.648 7.07704 8.7086C7.54987 7.7692 8.30687 7.00281 9.2404 6.51843Z" fill="#0A0A0A"/>
</svg>