<svg width="15" height="15" viewBox="0 0 15 15" fill="none" xmlns="http://www.w3.org/2000/svg">
<path fill-rule="evenodd" clip-rule="evenodd" d="M4 1.33333C2.52724 1.33333 1.33333 2.52724 1.33333 4V10.6666C1.33333 12.1394 2.52724 13.3333 4 13.3333H10.6667C12.1395 13.3333 13.3334 12.1394 13.3334 10.6666V4C13.3334 2.52724 12.1395 1.33333 10.6667 1.33333H4ZM0 4C0 1.79086 1.79086 0 4 0H10.6667C12.8759 0 14.6667 1.79086 14.6667 4V10.6666C14.6667 12.8758 12.8759 14.6666 10.6667 14.6666H4C1.79086 14.6666 0 12.8758 0 10.6666V4Z" fill="#C1C7D0"/>
<path fill-rule="evenodd" clip-rule="evenodd" d="M7.65551 5.3261C7.23939 5.26439 6.8144 5.33547 6.441 5.52922C6.0676 5.72297 5.7648 6.02952 5.57567 6.40528C5.38654 6.78104 5.32071 7.20687 5.38754 7.6222C5.45438 8.03753 5.65047 8.42122 5.94793 8.71868C6.24539 9.01614 6.62907 9.21223 7.0444 9.27906C7.45973 9.34594 7.88556 9.28006 8.26132 9.09093C8.63708 8.9018 8.94364 8.599 9.13739 8.2256C9.33114 7.8522 9.40225 7.42722 9.34055 7.0111C9.27757 6.58663 9.07978 6.19367 8.77636 5.89025C8.47294 5.58683 8.07997 5.38904 7.65551 5.3261ZM5.82691 4.34572C6.44924 4.0228 7.15755 3.90434 7.85109 4.00719C8.55852 4.11209 9.21346 4.44174 9.71915 4.94744C10.2249 5.45314 10.5546 6.10808 10.6595 6.81552C10.7623 7.50906 10.6439 8.21737 10.3209 8.8397C9.99795 9.46204 9.48705 9.96674 8.86078 10.2819C8.23451 10.5971 7.5248 10.7068 6.83258 10.5954C6.14036 10.484 5.50089 10.1572 5.00512 9.66144C4.50935 9.16572 4.18253 8.52625 4.07114 7.83403C3.95976 7.14181 4.06948 6.4321 4.38469 5.80583C4.69991 5.17956 5.20458 4.66864 5.82691 4.34572Z" fill="#C1C7D0"/>
<path d="M11.3334 3.99999C11.7016 3.99999 12.0001 3.70151 12.0001 3.33332C12.0001 2.96513 11.7016 2.66666 11.3334 2.66666C10.9653 2.66666 10.6668 2.96513 10.6668 3.33332C10.6668 3.70151 10.9653 3.99999 11.3334 3.99999Z" fill="#C1C7D0"/>
</svg>