<svg width="65" height="68" viewBox="0 0 65 68" fill="none" xmlns="http://www.w3.org/2000/svg">
<path d="M4.81481 0H60.1852L65 17H0L4.81481 0Z" fill="#A30A42"/>
<path d="M5 0H60V68L32.5 50.5L5 68V0Z" fill="#D90D58"/>
<path d="M15 31.36V36H18.42V31.36L23.28 21.96H19.44L16.74 27.84L14.02 21.96H10.14L15 31.36ZM33.058 21.96H24.458V36H33.058V33.26H27.878V30.18H32.458V27.54H27.878V24.7H33.058V21.96ZM44.2183 21.96V30.66L38.4983 21.96H35.0783V36H38.4983V27.34L44.2183 36H47.6383V21.96H44.2183ZM49.9173 36H53.3373V21.96H49.9173V36ZM51.6173 20.68C52.4573 20.68 53.0973 20.04 53.0973 19.22C53.0973 18.38 52.4573 17.74 51.6173 17.74C50.7973 17.74 50.1573 18.38 50.1573 19.22C50.1573 20.04 50.7973 20.68 51.6173 20.68Z" fill="white"/>
</svg>
