<svg width="158" height="149" viewBox="0 0 158 149" fill="none" xmlns="http://www.w3.org/2000/svg">
<path d="M157 27.5V0H87V27.5H157Z" fill="#A30A42"/>
<path d="M19 79L0.130377 79.5273L0.130371 149L19 149L19 79Z" fill="#A30A42"/>
<path d="M157.093 0L0.0932617 149L0.0932617 78.8479L86.8771 0L157.093 0Z" fill="#D90D58"/>
<path d="M51.4043 58.803L54.3059 69.0355L57.5271 72.4581L55.0221 74.8157L51.8009 71.3931L41.7629 67.8772L44.6175 65.1906L50.5459 67.5208L48.5789 61.4622L51.4043 58.803ZM56.571 57.6755L58.5997 59.831L62.0805 56.5549L63.8487 58.4337L60.3679 61.7097L62.52 63.9963L66.4377 60.3091L68.3156 62.3043L61.9074 68.3355L52.2164 58.0387L58.6246 52.0075L60.4888 53.9882L56.571 57.6755ZM78.7305 52.5022L76.24 54.8461L66.1258 52.4456L72.0747 58.7664L69.5843 61.1103L59.8933 50.8135L62.3837 48.4696L72.5528 50.9284L66.549 44.5493L69.0395 42.2054L78.7305 52.5022ZM73.1042 38.3798L82.7952 48.6766L80.3048 51.0205L70.6138 40.7237L73.1042 38.3798ZM68.9526 38.5794C68.6694 38.2784 68.5337 37.93 68.5457 37.5342C68.5577 37.1384 68.7093 36.8034 69.0006 36.5293C69.3016 36.246 69.6452 36.1149 70.0312 36.136C70.427 36.148 70.7666 36.3045 71.0499 36.6055C71.324 36.8968 71.4551 37.2404 71.4431 37.6361C71.4317 38.0131 71.2755 38.3432 70.9745 38.6265C70.6832 38.9006 70.3442 39.0366 69.9576 39.0343C69.5618 39.0223 69.2268 38.8706 68.9526 38.5794Z" fill="white"/>
</svg>
