<svg width="1028" height="329" viewBox="0 0 1028 329" fill="none" xmlns="http://www.w3.org/2000/svg">
<path d="M239.398 148.991L237.899 149.856L225.266 127.988L226.764 127.124L239.398 148.991Z" fill="#F23849"/>
<path d="M934.649 308.201C934.649 316.717 927.741 323.62 919.22 323.62C910.7 323.62 903.791 316.717 903.791 308.201C903.791 299.685 910.7 292.782 919.22 292.782C927.741 292.782 934.649 299.685 934.649 308.201Z" stroke="#FCBD56" stroke-width="10.5775"/>
<path d="M813.858 18.9292L803.714 36.49L793.571 18.9292H813.858Z" stroke="#F23849" stroke-width="5.76957"/>
<path d="M242.073 262.082C243.493 262.082 244.645 263.232 244.645 264.652C244.645 266.071 243.493 267.222 242.073 267.222C240.653 267.222 239.502 266.071 239.502 264.652C239.502 263.232 240.653 262.082 242.073 262.082Z" fill="#F23849"/>
<path d="M26.7448 28.3808C16.6493 26.0447 6.57024 32.3297 4.23264 42.4188C1.89504 52.5079 8.18407 62.5805 18.2796 64.9166C28.3751 67.2527 38.4541 60.9677 40.7917 50.8786C43.1293 40.7895 36.8403 30.7169 26.7448 28.3808Z" stroke="#F23849" stroke-width="2.88478"/>
<path d="M133.136 192.472L146.19 213.38L121.546 214.224L133.136 192.472Z" fill="#F23849"/>
<path d="M150.444 14.8212L164.292 0L170.211 19.3956L150.444 14.8212Z" stroke="#FCBD56" stroke-width="5.76957"/>
<path d="M1020.63 62.636C1016.89 47.4368 1001.54 38.1415 986.328 41.8746C971.119 45.6076 961.818 60.9552 965.553 76.1545C969.288 91.3538 984.646 100.649 999.855 96.9161C1015.06 93.183 1024.36 77.8353 1020.63 62.636Z" stroke="#F23849" stroke-width="10.5775"/>
<path d="M784.71 92.2986L796.139 92.5385L790.63 82.5293L784.71 92.2986Z" fill="#FCBD56"/>
<path d="M907.185 166.907L918.54 170.204L910.008 178.382L907.185 166.907Z" stroke="#F23849" stroke-width="5.76957"/>
</svg>