<svg width="1800" height="589" viewBox="0 0 1800 589" fill="none" xmlns="http://www.w3.org/2000/svg">
<path d="M416.405 272.115L413.773 273.633L391.588 235.232L394.22 233.713L416.405 272.115Z" fill="#F23849"/>
<path d="M1637.34 551.703C1637.34 566.658 1625.2 578.781 1610.24 578.781C1595.28 578.781 1583.15 566.658 1583.15 551.703C1583.15 536.748 1595.28 524.626 1610.24 524.626C1625.2 524.626 1637.34 536.748 1637.34 551.703Z" stroke="#FCBD56" stroke-width="18.5752"/>
<path d="M1425.21 43.7134L1407.4 74.552L1389.59 43.7134H1425.21Z" stroke="#F23849" stroke-width="10.1319"/>
<path d="M421.104 470.713C423.598 470.713 425.62 472.733 425.62 475.226C425.62 477.718 423.598 479.739 421.104 479.739C418.61 479.739 416.588 477.718 416.588 475.226C416.588 472.733 418.61 470.713 421.104 470.713Z" fill="#F23849"/>
<path d="M42.9663 60.3124C25.2376 56.2099 7.5378 67.2471 3.43279 84.9645C-0.672258 102.682 10.3719 120.37 28.1006 124.473C45.8292 128.575 63.529 117.538 67.634 99.821C71.7391 82.1033 60.6949 64.4148 42.9663 60.3124Z" stroke="#F23849" stroke-width="5.06596"/>
<path d="M229.8 348.473L252.724 385.19L209.445 386.672L229.8 348.473Z" fill="#F23849"/>
<path d="M260.193 36.4987L284.512 10.4713L294.907 44.5318L260.193 36.4987Z" stroke="#FCBD56" stroke-width="10.1319"/>
<path d="M1788.32 120.467C1781.77 93.775 1754.8 77.4521 1728.09 84.0076C1701.38 90.563 1685.05 117.515 1691.61 144.207C1698.16 170.898 1725.13 187.221 1751.84 180.666C1778.55 174.11 1794.88 147.158 1788.32 120.467Z" stroke="#F23849" stroke-width="18.5752"/>
<path d="M1532.08 32.0705L1552.15 32.4917L1542.47 14.9146L1532.08 32.0705Z" fill="#FCBD56"/>
<path d="M1589.11 303.577L1609.05 309.366L1594.06 323.728L1589.11 303.577Z" stroke="#F23849" stroke-width="10.1319"/>
</svg>