<svg width="22" height="22" viewBox="0 0 22 22" fill="none" xmlns="http://www.w3.org/2000/svg">
<path d="M19.0001 21.9C18.9001 21.9 18.8001 21.9 18.7001 21.9C15.5001 21.5 12.3001 20.4 9.6001 18.7C7.1001 17.1 4.9001 14.9 3.3001 12.4C1.5001 9.7 0.400098 6.5 0.100098 3.3C0.100098 2.5 0.300098 1.7 0.800098 1.1C1.3001 0.5 2.0001 0.1 2.8001 0C2.9001 0 3.0001 0 3.1001 0H6.1001C7.6001 0 8.9001 1.1 9.1001 2.6C9.2001 3.5 9.4001 4.4 9.7001 5.2C10.1001 6.3 9.8001 7.5 9.0001 8.4L8.3001 9.1C9.5001 10.9 11.0001 12.5 12.9001 13.7L13.6001 13C14.4001 12.2 15.7001 11.9 16.8001 12.3C17.6001 12.6 18.5001 12.8 19.4001 12.9C20.9001 13.1 22.0001 14.4 22.0001 15.9V18.9C22.0001 19.7 21.7001 20.5 21.1001 21C20.5001 21.5 19.8001 21.9 19.0001 21.9ZM6.1001 2H3.1001C2.8001 2 2.5001 2.2 2.3001 2.4C2.2001 2.6 2.1001 2.8 2.1001 3.1C2.4001 6 3.4001 8.8 5.0001 11.3C6.5001 13.6 8.4001 15.6 10.7001 17C13.2001 18.6 16.0001 19.6 18.9001 19.9C19.3001 19.9 19.5001 19.8 19.7001 19.6C19.9001 19.4 20.0001 19.2 20.0001 18.9V15.9C20.0001 15.4 19.6001 15 19.1001 14.9C18.1001 14.8 17.1001 14.5 16.1001 14.1C15.7001 14 15.3001 14 15.0001 14.3L13.7001 15.6C13.4001 15.9 12.9001 16 12.5001 15.8C9.8001 14.3 7.6001 12.1 6.1001 9.4C6.0001 9 6.1001 8.5 6.4001 8.2L7.7001 6.9C7.9001 6.7 8.0001 6.2 7.9001 5.9C7.5001 4.9 7.3001 3.9 7.1001 2.9C7.1001 2.4 6.6001 2 6.1001 2Z" fill="#BECAD7"/>
</svg>
