<svg width="16" height="16" viewBox="0 0 16 16" fill="none" xmlns="http://www.w3.org/2000/svg">
<path d="M13.3333 15.2667C13.2666 15.2667 13.1999 15.2667 13.1333 15.2667C10.9999 15 8.86661 14.2667 7.06661 13.1334C5.39994 12.0667 3.93328 10.6 2.86661 8.93335C1.66661 7.13335 0.933276 5.00002 0.733276 2.86669C0.733276 2.33335 0.86661 1.80002 1.19994 1.40002C1.53328 1.00002 1.99994 0.733354 2.53328 0.666687C2.59994 0.666687 2.66661 0.666687 2.73328 0.666687H4.73328C5.73328 0.666687 6.59994 1.40002 6.73328 2.40002C6.79994 3.00002 6.93328 3.60002 7.13328 4.13335C7.39994 4.86669 7.19994 5.66669 6.66661 6.26669L6.19994 6.73335C6.99994 7.93335 7.99994 9.00002 9.26661 9.80002L9.73328 9.33335C10.2666 8.80002 11.1333 8.60002 11.8666 8.86669C12.3999 9.06669 12.9999 9.20002 13.5999 9.26669C14.5999 9.40002 15.3333 10.2667 15.3333 11.2667V13.2667C15.3333 13.8 15.1333 14.3334 14.7333 14.6667C14.3333 15 13.8666 15.2667 13.3333 15.2667ZM4.73328 2.00002H2.73328C2.53328 2.00002 2.33328 2.13335 2.19994 2.26669C2.13328 2.40002 2.06661 2.53335 2.06661 2.73335C2.26661 4.66669 2.93328 6.53335 3.99994 8.20002C4.99994 9.73335 6.26661 11.0667 7.79994 12C9.46661 13.0667 11.3333 13.7334 13.2666 13.9334C13.5333 13.9334 13.6666 13.8667 13.7999 13.7334C13.9333 13.6 13.9999 13.4667 13.9999 13.2667V11.2667C13.9999 10.9334 13.7333 10.6667 13.3999 10.6C12.7333 10.5334 12.0666 10.3334 11.3999 10.0667C11.1333 10 10.8666 10 10.6666 10.2L9.79994 11.0667C9.59994 11.2667 9.26661 11.3334 8.99994 11.2C7.19994 10.2 5.73328 8.73335 4.73328 6.93335C4.66661 6.66669 4.73328 6.33335 4.93328 6.13335L5.79994 5.26669C5.93328 5.13335 5.99994 4.80002 5.93328 4.60002C5.66661 3.93335 5.53328 3.26669 5.39994 2.60002C5.39994 2.26669 5.06661 2.00002 4.73328 2.00002Z" fill="#C1C7D0"/>
</svg>
