<svg width="79" height="206" viewBox="0 0 79 206" fill="none" xmlns="http://www.w3.org/2000/svg">
<path d="M21.7159 109.354C32.5206 112.141 45.0894 110.212 55.4532 105.281C59.4223 114.285 61.6273 123.932 61.4069 133.793C60.9658 158.876 44.2074 180.957 20.3928 189.961C21.7159 183.744 23.4799 177.956 25.6849 171.953C27.008 168.094 20.8339 166.379 19.2903 170.238C16.4238 177.956 14.2187 185.888 12.6751 194.034C12.4546 195.32 12.8956 196.607 13.9982 197.464C14.4392 198.107 14.8802 198.751 15.9827 198.965C23.7004 201.323 31.1976 203.467 38.9153 205.825C42.8843 207.111 44.6484 200.894 40.6794 199.608C35.6077 198.107 30.536 196.607 25.4644 195.106C48.6175 185.245 65.3759 164.021 67.8015 138.939C68.9041 127.576 66.699 114.285 61.4069 102.28C62.0684 101.851 62.7298 101.422 63.3914 100.993C74.8577 92.8469 78.8268 80.6273 78.1652 67.3357C76.1807 30.6769 45.9714 2.80745 8.92651 0.020509C4.7369 -0.408251 4.7369 6.02314 8.92651 6.4519C40.8998 9.02446 67.581 32.3918 71.3296 63.9057C72.8731 77.4116 69.345 88.9882 58.7608 96.277C51.484 82.9855 40.0178 72.2665 24.8029 69.6939C13.9982 67.979 1.20882 72.0522 0.106288 84.0574C-1.21674 96.2771 10.0291 106.353 21.7159 109.354ZM34.0642 79.7698C40.2383 83.4142 45.5304 88.7737 49.4996 94.562C50.6021 96.0626 51.4841 97.5633 52.3661 99.2784H52.1456C38.6947 105.281 10.2496 107.854 7.16249 88.345C4.29592 71.1946 25.244 74.8391 34.0642 79.7698Z" fill="#D90D58"/>
</svg>
