<svg width="16" height="14" viewBox="0 0 16 14" fill="none" xmlns="http://www.w3.org/2000/svg">
<path d="M5.48366 13.3C3.75032 13.3 1.95032 12.8333 0.350322 11.9C0.0836554 11.7667 -0.0496777 11.4333 0.016989 11.1667C0.0836555 10.9 0.350322 10.7 0.616989 10.7C1.75032 10.7667 2.88366 10.5 3.88366 10.0333C1.41699 8.5 0.750322 6.36667 0.683655 4.70001C0.616989 2.76667 1.28366 1.16667 1.35032 1.10001C1.41699 0.900005 1.61699 0.700005 1.88366 0.700005C2.15032 0.700005 2.35032 0.766665 2.48366 0.966665C3.61699 2.56667 5.35032 3.56667 7.28366 3.70001C7.28366 2.63334 7.75032 1.63334 8.55032 0.900005C9.95032 -0.299997 12.017 -0.299997 13.417 0.900005C13.9503 0.700005 14.4836 0.433335 14.9503 0.100005C15.1503 -0.033335 15.4836 -0.033335 15.6836 0.100005C15.8836 0.233335 16.0169 0.566665 15.9503 0.833335C15.7503 1.76667 15.2836 2.63333 14.6169 3.36666C14.6169 3.5 14.6169 3.56667 14.6169 3.70001C14.6169 7.36667 13.017 10.4333 10.1503 12.0333C8.75032 12.9 7.15032 13.3 5.48366 13.3ZM3.28366 11.7C5.48366 12.2333 7.68366 11.9667 9.55032 10.9C11.9503 9.50001 13.3503 6.83334 13.3503 3.70001C13.3503 3.56667 13.3503 3.43333 13.2836 3.3C13.217 3.1 13.2836 2.83334 13.4836 2.70001C13.6169 2.56667 13.7503 2.36667 13.8836 2.23334C13.7503 2.30001 13.5503 2.36667 13.417 2.36667C13.1503 2.43334 12.8836 2.36667 12.7503 2.16667C11.8836 1.23334 10.4169 1.10001 9.48366 1.96667C8.88366 2.36667 8.61699 3.03334 8.61699 3.70001V4.36666C8.61699 4.7 8.35032 5.03334 7.95032 5.03334C5.75032 5.10001 3.68366 4.23334 2.21699 2.70001C1.81699 4.43334 1.68366 7.70001 5.55032 9.36672C5.75032 9.50002 5.95032 9.70001 5.95032 9.96671C5.95032 10.2333 5.88366 10.4333 5.68366 10.5667C4.88366 11.1 4.08366 11.5 3.28366 11.7Z" fill="#C1C7D0"/>
</svg>