<svg width="24" height="21" viewBox="0 0 25 21" fill="none" xmlns="http://www.w3.org/2000/svg">
<path d="M8.81644 20.9502C6.21123 20.9502 3.50582 20.2484 1.101 18.8449C0.700198 18.6444 0.499797 18.1432 0.599997 17.7422C0.700198 17.3412 1.101 17.0404 1.50181 17.0404C3.20521 17.1407 4.90862 16.7397 6.41163 16.0379C2.70421 13.7322 1.70221 10.5241 1.60201 8.01787C1.50181 5.1106 2.50381 2.70459 2.60401 2.60434C2.70421 2.30358 3.00481 2.00283 3.40562 2.00283C3.80642 2.00283 4.10702 2.10308 4.30742 2.40383C6.01083 4.80985 8.61604 6.31361 11.5218 6.51411C11.5218 4.9101 12.2232 3.40634 13.4256 2.30358C15.5298 0.499072 18.636 0.499072 20.7403 2.30358C21.5419 2.00283 22.3435 1.60183 23.0449 1.10058C23.3455 0.900075 23.8465 0.900075 24.1471 1.10058C24.4477 1.30108 24.6481 1.80233 24.5479 2.20333C24.2473 3.60684 23.5459 4.9101 22.5439 6.01286C22.5439 6.21336 22.5439 6.31361 22.5439 6.51411C22.5439 12.0279 20.139 16.6394 15.8304 19.0454C13.7262 20.3487 11.3214 20.9502 8.81644 20.9502ZM5.50983 18.5442C8.81644 19.3462 12.123 18.9452 14.9286 17.3412C18.5358 15.2359 20.64 11.2259 20.64 6.51411C20.64 6.31361 20.6401 6.11311 20.5399 5.91261C20.4397 5.61185 20.5399 5.21085 20.8405 5.01035C21.0409 4.80985 21.2413 4.5091 21.4417 4.3086C21.2413 4.40885 20.9407 4.5091 20.7403 4.5091C20.3394 4.60935 19.9386 4.5091 19.7382 4.20835C18.4356 2.80484 16.2312 2.60434 14.8284 3.90759C13.9266 4.5091 13.5258 5.5116 13.5258 6.51411V7.51662C13.5258 8.01787 13.125 8.51912 12.5238 8.51912C9.21724 8.61937 6.11103 7.31611 3.90662 5.01035C3.30541 7.61687 3.10501 12.5291 8.91664 15.0354C9.21724 15.2359 9.51785 15.5367 9.51785 15.9377C9.51785 16.3387 9.41764 16.6394 9.11704 16.8399C7.91464 17.6419 6.71223 18.2434 5.50983 18.5442Z" fill="#0A0A0A" />
</svg>