<svg width="128" height="124" viewBox="0 0 128 124" fill="none" xmlns="http://www.w3.org/2000/svg">
<path d="M43.2916 108.388C43.2916 108.95 43.1251 109.499 42.8131 109.965C42.5011 110.432 42.0577 110.796 41.539 111.01C41.0202 111.225 40.4495 111.281 39.8989 111.171C39.3483 111.061 38.8427 110.791 38.446 110.394C38.0493 109.996 37.7793 109.49 37.6703 108.94C37.5612 108.389 37.618 107.818 37.8333 107.3C38.0487 106.781 38.413 106.338 38.8802 106.027C39.3473 105.716 39.8964 105.55 40.4578 105.551C41.2097 105.552 41.9305 105.851 42.4618 106.383C42.9932 106.915 43.2916 107.636 43.2916 108.388Z" fill="#FFE380"/>
<path d="M90.3953 108.388C90.3945 108.949 90.2277 109.496 89.9158 109.962C89.604 110.427 89.1611 110.79 88.6432 111.004C88.1253 111.218 87.5557 111.273 87.0062 111.163C86.4567 111.054 85.9521 110.784 85.5562 110.387C85.1603 109.991 84.8907 109.486 84.7817 108.936C84.6727 108.386 84.729 107.817 84.9436 107.299C85.1582 106.782 85.5214 106.339 85.9874 106.028C86.4533 105.717 87.0011 105.551 87.5614 105.551C88.3134 105.552 89.0341 105.851 89.5655 106.383C90.0968 106.915 90.3953 107.636 90.3953 108.388Z" fill="#FFE380"/>
<path d="M124.62 44.622C123.642 45.7036 122.808 46.9071 122.138 48.2027C121.513 49.6522 121.135 51.1966 121.02 52.7713C120.821 54.7283 121.135 56.6584 121.02 58.5999C122.41 57.1443 123.61 55.5192 124.593 53.7632C125.148 52.9326 125.589 52.0309 125.903 51.0825C126.179 50.0509 126.278 48.9802 126.198 47.9155C126.144 47.4247 126.129 46.9303 126.156 46.4372C126.236 45.8283 126.661 45.2884 126.761 44.6642C126.86 43.9595 126.791 43.2204 127.09 42.5617C126.225 42.8374 125.558 43.5383 124.972 44.2084C124.85 44.3348 124.735 44.465 124.62 44.5914V44.622Z" fill="#FFE380"/>
<path d="M3.37598 44.622C4.35527 45.7035 5.19065 46.907 5.86137 48.2027C6.48603 49.6524 6.86273 51.1968 6.97577 52.7713C7.1749 54.7283 6.86471 56.6584 6.97577 58.5999C5.58974 57.1404 4.38846 55.516 3.39896 53.7632C2.8449 52.9325 2.40561 52.0308 2.09306 51.0825C1.81887 50.0506 1.71922 48.9802 1.7982 47.9155C1.85437 47.4248 1.86846 46.9303 1.84032 46.4372C1.76373 45.8283 1.33865 45.2884 1.23908 44.6642C1.13951 43.9595 1.20462 43.2204 0.913574 42.5617C1.77523 42.8374 2.44541 43.5383 3.02367 44.2084C3.14622 44.354 3.2611 44.4842 3.37598 44.622Z" fill="#FFE380"/>
<path d="M126.681 63.0807C126.496 64.2811 126.041 65.4241 125.352 66.4239C124.971 66.9867 124.561 67.5287 124.122 68.0476C123.566 68.5955 122.949 69.0785 122.284 69.4875C121.835 69.7891 121.349 70.0299 120.837 70.2037C120.463 70.4116 120.08 70.6008 119.688 70.7705C119.786 70.3548 119.838 69.9298 119.845 69.5029C119.906 68.9131 120.09 68.3808 120.17 67.8064C120.304 66.8032 120.578 65.8236 120.982 64.8959C121.342 63.95 121.784 63.0376 122.303 62.1692C122.883 61.3332 123.536 60.5514 124.256 59.8332C124.791 59.2737 125.393 58.7824 126.049 58.3703C126.622 58.0835 127.12 57.6648 127.5 57.1487C126.975 57.8648 127.117 59.2856 127.067 60.1051C126.991 61.1029 126.863 62.096 126.684 63.0807H126.681Z" fill="#FFE380"/>
<path d="M1.31953 63.0808C1.50028 64.2823 1.95494 65.4262 2.64838 66.424C3.02752 66.9868 3.43661 67.5288 3.87385 68.0477C4.43294 68.5957 5.05216 69.0787 5.7197 69.4876C6.16839 69.7865 6.65528 70.0235 7.16727 70.1923C7.53978 70.4017 7.92329 70.5909 8.31614 70.759C8.21637 70.3438 8.16371 69.9185 8.15914 69.4915C8.09404 68.9017 7.91022 68.3694 7.82597 67.795C7.69585 66.7923 7.42645 65.8127 7.02558 64.8845C6.66 63.9406 6.21682 63.0286 5.70056 62.1579C5.11891 61.3226 4.464 60.5408 3.74363 59.8218C3.20945 59.2615 2.60738 58.77 1.9514 58.3589C1.37994 58.0689 0.883226 57.6509 0.5 57.1373C1.02465 57.8534 0.882955 59.2742 0.92891 60.0937C0.994013 61.0779 1.19316 62.1081 1.31953 63.0808Z" fill="#FFE380"/>
<path d="M102.815 98.975C103.094 97.0296 103.879 95.1455 103.711 93.1273C103.527 90.8946 102.064 88.9913 101.712 86.8123C101.584 86.1907 101.621 85.5464 101.819 84.9435C101.418 85.2207 101.066 85.5623 100.777 85.9545C100.453 86.3822 100.179 86.8462 99.9616 87.337C99.6105 88.2123 99.3774 89.1306 99.2685 90.0674C98.9621 91.9822 98.9659 94.3144 99.6285 96.1182C100.107 97.4126 101.275 99.1052 102.838 99.0478C102.838 98.6648 102.995 98.2819 103.021 97.8721" fill="#FFE380"/>
<path d="M25.1855 98.975C24.9098 97.0296 24.1171 95.1455 24.2894 93.1273C24.4694 90.8946 25.9323 88.9913 26.2846 86.8123C26.4143 86.1908 26.3773 85.5461 26.1774 84.9435C26.578 85.2207 26.93 85.5623 27.219 85.9545C27.5447 86.3821 27.8196 86.846 28.0385 87.337C28.3867 88.2131 28.6184 89.1311 28.7279 90.0674C29.0381 91.9822 29.0304 94.3144 28.3641 96.1182C27.893 97.4126 26.725 99.1052 25.1549 99.0478C25.1549 98.6648 25.0017 98.2819 24.9787 97.8721" fill="#FFE380"/>
<path d="M93.0646 104.804C93.4405 105.81 94.0074 106.735 94.7343 107.527C94.9329 107.708 95.0863 107.934 95.1823 108.185C95.2895 107.94 95.2513 107.618 95.3546 107.339C95.6211 106.813 95.9517 106.321 96.3389 105.876C96.9435 105.006 97.3044 103.991 97.3843 102.935C97.5109 101.765 97.4527 100.583 97.212 99.4308C96.9406 98.3546 96.5447 97.3136 96.0325 96.3289C95.7131 95.5215 95.4571 94.6906 95.2666 93.8435C95.01 94.663 94.5007 95.4098 94.1177 96.2025C93.727 97.0858 93.3881 97.9911 93.1029 98.9139C92.4863 100.829 92.3369 102.885 93.0531 104.815L93.0646 104.804Z" fill="#FFE380"/>
<path d="M34.9353 104.804C34.5581 105.811 33.9898 106.735 33.2618 107.527C33.0618 107.705 32.9103 107.932 32.8214 108.185C32.7104 107.94 32.7487 107.618 32.6453 107.339C32.3788 106.812 32.0469 106.32 31.6572 105.876C31.0547 105.005 30.6927 103.991 30.6079 102.935C30.4846 101.765 30.544 100.583 30.7841 99.4308C31.0555 98.3546 31.4513 97.3136 31.9636 96.3289C32.2811 95.5209 32.5372 94.6901 32.7295 93.8435C32.9861 94.663 33.4954 95.4098 33.8784 96.2025C34.2708 97.0851 34.6097 97.9905 34.8932 98.9139C35.4983 100.829 35.6591 102.874 34.9353 104.804Z" fill="#FFE380"/>
<path d="M117.06 65.2942C117.064 61.1553 116.824 57.0199 116.341 52.9093C114.862 53.6331 112.614 52.8519 111.546 51.8026C110.809 51.0008 110.282 50.0283 110.014 48.9725C109.729 48.0072 109.492 47.0282 109.306 46.0391C109.168 45.3421 108.666 44.0362 109.053 43.3584C109.589 43.7413 110.037 44.289 110.554 44.7217C111.232 45.3076 111.921 45.8438 112.591 46.4412C113.262 47.0386 113.947 47.5403 114.575 48.1683C114.927 48.5206 115.437 48.8844 115.839 49.2904C115.433 46.7131 114.947 44.2583 114.399 41.9261C114.25 41.9203 114.102 41.905 113.955 41.8802C111.63 41.4436 109.547 39.862 108.122 38.0506C107.33 37.1196 106.685 36.0737 106.207 34.9486C106.035 34.4967 105.909 33.9989 105.771 33.524C105.668 33.1411 105.388 32.4862 105.442 32.1377C106.157 32.4829 106.854 32.8664 107.529 33.2866C108.525 33.8034 109.487 34.3841 110.409 35.0252C111.096 35.4971 111.756 36.0086 112.385 36.557C112.538 36.7026 112.848 36.8979 113.15 37.1162C109.237 23.6438 103.477 15.077 101.225 12.0631C101.118 12.0287 99.6091 10.7687 99.3794 10.5964C98.3645 9.8305 97.1467 9.34415 95.9979 8.73525C95.0927 8.31774 94.2652 7.74923 93.5508 7.05406C92.8997 6.36091 92.4287 5.52222 91.8351 4.81758C90.6441 3.37383 89.9203 1.71565 89.2655 0C90.4723 0.83242 91.7683 1.52732 93.1295 2.07179C94.4094 2.55015 95.6523 3.12232 96.848 3.78362C97.9715 4.46576 98.9905 5.30674 99.8734 6.28048C100.6 7.05653 101.169 7.96715 101.547 8.96118C101.727 9.42838 102.198 10.6232 102.255 10.7687C104.699 14.1349 118.956 35.0137 118.956 64.7121C118.92 73.3939 116.916 81.9546 113.093 89.7498C114.177 88.4477 115.942 87.6703 117.501 87.184C118.363 86.9159 119.22 86.7627 120.071 86.5291C120.997 86.2763 121.939 85.9968 122.885 85.8092C122.502 85.8857 122.146 86.3759 121.932 86.6631C121.526 87.1763 121.112 87.678 120.725 88.195C119.611 89.7268 118.929 91.5343 117.662 92.9743C116.914 93.8369 115.98 94.519 114.931 94.9695C114.219 95.2644 112.99 95.4558 112.27 95.0882C111.389 94.6401 111.347 93.6521 111.615 92.6526C110.066 95.4991 108.334 98.2418 106.43 100.863C107.183 100.453 108 100.171 108.846 100.028C110.241 99.815 111.648 99.6872 113.059 99.6454C114.433 99.5535 115.762 99.2624 117.122 99.0556C115.937 100.138 114.831 101.304 113.813 102.544C113.119 103.243 112.348 103.861 111.515 104.386C110.733 104.971 109.865 105.43 108.942 105.746C107.996 106.056 106.483 106.355 105.564 105.845C104.768 105.413 104.369 104.314 104.5 103.456C104.503 103.418 104.511 103.381 104.522 103.345C94.2937 116.338 82.3684 123.496 82.3684 123.496V118.9C82.3684 118.9 117.03 97.5085 117.03 65.2865L117.06 65.2942Z" fill="#FFE380"/>
<path d="M10.9355 65.2942C10.9343 61.1552 11.1773 57.0197 11.6632 52.9093C13.1337 53.6331 15.3817 52.8519 16.4501 51.8026C17.1919 51.004 17.719 50.0303 17.9819 48.9725C18.272 48.0083 18.5098 47.029 18.6942 46.0391C18.8398 45.3421 19.3338 44.0362 18.9431 43.3584C18.4147 43.7413 17.9628 44.289 17.4458 44.7217C16.7718 45.3076 16.0786 45.8438 15.4123 46.4412C14.7459 47.0386 14.0566 47.5403 13.4286 48.1683C13.0763 48.5206 12.5669 48.8844 12.1686 49.2904C12.5516 46.7131 13.0571 44.2583 13.6009 41.9261C13.7498 41.9206 13.8982 41.9052 14.0451 41.8802C16.3773 41.4436 18.4491 39.862 19.8776 38.0506C20.668 37.1187 21.3135 36.0729 21.7923 34.9486C21.9647 34.4967 22.0911 33.9989 22.2251 33.524C22.3361 33.1411 22.608 32.4862 22.5621 32.1377C21.845 32.4853 21.1459 32.8687 20.4673 33.2866C19.4726 33.8043 18.512 34.385 17.5913 35.0252C16.9049 35.499 16.2452 36.0104 15.6152 36.557C15.4621 36.7026 15.1595 36.8979 14.8493 37.1162C18.7632 23.6438 24.519 15.077 26.7708 12.0631C26.8818 12.0287 28.3945 10.7687 28.6205 10.5964C29.643 9.8305 30.8531 9.34415 32.0058 8.73525C32.9099 8.31582 33.7371 7.74752 34.4529 7.05406C35.1039 6.36091 35.5673 5.52222 36.1609 4.81758C37.3557 3.37383 38.0757 1.71565 38.7344 0C37.5276 0.83242 36.2315 1.52732 34.8703 2.07179C33.591 2.55163 32.3482 3.12375 31.1518 3.78362C30.029 4.46676 29.0102 5.30763 28.1265 6.28048C27.4007 7.05754 26.8324 7.96789 26.4529 8.96118C26.2768 9.42838 25.8057 10.6232 25.7521 10.7687C23.3012 14.1349 9.04755 35.0137 9.04755 64.7121C9.08208 73.3937 11.0854 81.9543 14.9068 89.7498C13.8268 88.4477 12.0614 87.6703 10.4989 87.184C9.6373 86.9159 8.78715 86.7627 7.92932 86.5291C7.00257 86.2763 6.06814 85.9968 5.11841 85.8092C5.50137 85.8857 5.86134 86.3759 6.0758 86.6631C6.45876 87.1763 6.89151 87.678 7.28212 88.195C8.39653 89.7268 9.07819 91.5343 10.3458 92.9743C11.0916 93.8341 12.0207 94.5159 13.0648 94.9695C13.7847 95.2644 15.014 95.4558 15.7225 95.0882C16.6071 94.6401 16.6531 93.6521 16.3812 92.6526C17.9295 95.4991 19.6616 98.2418 21.5664 100.863C20.813 100.452 19.9963 100.17 19.15 100.028C17.7549 99.815 16.3481 99.6872 14.9374 99.6454C13.5664 99.5535 12.2376 99.2624 10.8819 99.0556C12.063 100.142 13.1685 101.307 14.1907 102.544C14.8833 103.245 15.6543 103.863 16.4884 104.386C17.272 104.97 18.1415 105.429 19.0657 105.746C20.0116 106.056 21.5204 106.355 22.4395 105.845C23.2399 105.413 23.6306 104.314 23.5042 103.456C23.5063 103.419 23.5063 103.382 23.5042 103.345C33.733 116.338 45.6506 123.496 45.6506 123.496V118.9C45.6506 118.9 10.9355 97.5123 10.9355 65.2942Z" fill="#FFE380"/>
<path d="M109.26 20.6145C108.728 20.8098 108.559 19.3584 108.402 19.0827C107.942 18.2708 107.2 17.6619 106.748 16.8769C105.872 15.3333 105.313 13.6302 105.105 11.8678C104.988 11.0178 104.944 10.1594 104.975 9.30196C105.017 8.53604 104.89 7.41782 105.587 6.87019C106.162 6.4183 106.606 7.75099 106.805 8.2067C107.14 9.04414 107.524 9.86125 107.954 10.6538C108.482 11.4128 108.968 12.2003 109.409 13.0128C109.827 13.9134 110.134 14.861 110.324 15.8352C110.536 16.7174 110.527 17.6381 110.298 18.5159C110.16 19.0176 109.846 20.3885 109.267 20.5915L109.26 20.6145Z" fill="#FFE380"/>
<path d="M18.7325 20.6145C19.2686 20.8098 19.441 19.3584 19.598 19.0827C20.0537 18.2708 20.8043 17.6619 21.2524 16.8769C22.1275 15.3327 22.6872 13.63 22.8991 11.8678C23.0035 11.0167 23.0445 10.1591 23.0216 9.30196C22.9757 8.53604 23.0982 7.41782 22.4012 6.87019C21.8306 6.4183 21.3826 7.75099 21.1796 8.2067C20.848 9.04556 20.4643 9.86286 20.0307 10.6538C19.5025 11.412 19.018 12.1996 18.5793 13.0128C18.1623 13.9139 17.8538 14.8613 17.6602 15.8352C17.4525 16.7178 17.4617 17.6376 17.687 18.5159C17.8402 19.0405 18.1581 20.4077 18.7325 20.6145Z" fill="#FFE380"/>
<path d="M94.179 12.5303C94.8683 12.4652 96.0172 12.9477 96.7027 13.1698C97.9003 13.5147 99.0714 13.946 100.207 14.4604C101.165 14.9119 102.03 15.5393 102.757 16.3101C103.397 17.0032 104.235 18.1061 104.481 19.0252C103.803 19.1861 103.098 18.9946 102.416 18.9946C101.68 18.9866 100.953 18.829 100.279 18.5312C99.3653 18.1033 98.5383 17.5099 97.84 16.7811C96.4941 15.4774 95.2687 14.0546 94.179 12.5303Z" fill="#FFE380"/>
<path d="M33.8212 12.5303C33.128 12.4652 31.9829 12.9477 31.2936 13.1698C30.0955 13.5134 28.9244 13.9448 27.7896 14.4604C26.8311 14.9119 25.966 15.5393 25.2391 16.3101C24.6034 17.0032 23.7647 18.1061 23.512 19.0252C24.1936 19.1861 24.9021 18.9946 25.5761 18.9946C26.3149 18.9867 27.0445 18.8291 27.7207 18.5312C28.6354 18.1024 29.4635 17.5092 30.1639 16.7811C31.5055 15.4743 32.7293 14.0519 33.8212 12.5303Z" fill="#FFE380"/>
<path d="M105.74 24.0919C107.525 25.3457 108.874 27.1247 109.6 29.1814C108.989 29.5057 108.309 29.6778 107.617 29.6831C105.587 29.6525 103.91 28.1858 102.768 26.6654C102.153 25.7515 101.621 24.7837 101.179 23.7741C100.753 22.9328 100.385 22.0626 100.08 21.17C100.988 21.5529 101.849 22.0355 102.761 22.4491C103.801 22.9095 104.799 23.4592 105.744 24.0919H105.74Z" fill="#FFE380"/>
<path d="M117.087 30.9353C116.754 31.4791 116.383 32.2986 115.766 32.5935C114.866 33.0109 114.169 31.6744 113.851 31.031C113.393 29.977 113.107 28.8559 113.005 27.7108C112.915 26.7264 112.931 25.7351 113.055 24.7544C113.109 23.6835 113.237 22.6177 113.438 21.5644C113.694 20.5112 114.043 19.4581 114.384 18.4279C114.525 17.999 114.686 17.5778 114.817 17.145C114.928 16.7889 114.889 16.4174 115.119 16.1149C115.602 16.8387 115.835 17.8535 116.218 18.6654C116.695 19.5592 117.098 20.4903 117.424 21.4495C118.041 23.5864 118.428 25.7118 118.007 27.9253C117.8 29.0052 117.624 29.9817 117.057 30.9353H117.087Z" fill="#FFE380"/>
<path d="M10.9088 30.9353C11.2458 31.4791 11.6173 32.2986 12.2377 32.5935C13.13 33.0109 13.8269 31.6744 14.1333 31.031C14.5887 29.9758 14.8744 28.8553 14.9797 27.7108C15.0721 26.7265 15.0554 25.735 14.9299 24.7544C14.8773 23.6834 14.7493 22.6174 14.5469 21.5644C14.298 20.5112 13.9457 19.4581 13.601 18.4279C13.4555 17.999 13.3023 17.5778 13.1683 17.145C13.061 16.7889 13.0955 16.4174 12.8696 16.1149C12.3832 16.8387 12.1534 17.8535 11.7705 18.6654C11.2924 19.5591 10.8877 20.4902 10.5603 21.4495C9.94378 23.5864 9.55699 25.7118 9.97824 27.9253C10.1659 29.0052 10.3191 29.9817 10.9088 30.9353Z" fill="#FFE380"/>
<path d="M122.556 38.5024C122.176 40.0085 121.611 41.462 120.875 42.8298C120.389 43.7872 119.573 44.534 118.96 45.3803C118.96 44.6986 118.527 43.8485 118.397 43.1706C118.309 42.7465 118.253 42.3164 118.229 41.8839C118.202 41.3056 118.175 40.735 118.167 40.1759C118.066 38.3116 118.338 36.4458 118.968 34.6881C119.385 33.7 119.874 32.7438 120.431 31.8275C120.725 31.2578 121.05 30.7043 121.403 30.1692C121.564 29.9471 122.265 29.0204 122.514 28.9821C122.843 28.9246 122.897 29.9663 122.931 30.2497C123.06 31.4091 123.109 32.5761 123.077 33.7422C123.09 35.3428 122.922 36.9397 122.575 38.5024H122.556Z" fill="#FFE380"/>
<path d="M5.44035 38.5024C5.81893 40.0091 6.38365 41.4627 7.12152 42.8298C7.6117 43.7872 8.42357 44.534 9.0363 45.3803C9.0363 44.6986 9.47289 43.8485 9.60309 43.1706C9.68744 42.7459 9.74373 42.316 9.7716 41.8839C9.79457 41.3056 9.82137 40.735 9.83286 40.1759C9.93248 38.3117 9.66041 36.4462 9.03247 34.6881C8.61435 33.6999 8.12414 32.7438 7.56576 31.8275C7.27254 31.2579 6.94911 30.7043 6.59687 30.1692C6.4322 29.9471 5.73522 29.0204 5.47864 28.9821C5.15696 28.9246 5.09568 29.9663 5.06504 30.2497C4.9375 31.4092 4.89016 32.5762 4.92335 33.7422C4.91501 35.3434 5.08846 36.9403 5.44035 38.5024Z" fill="#FFE380"/>
<path d="M110.78 60.5339C110.609 59.5505 110.538 58.5522 110.569 57.5545C110.569 56.7388 110.493 55.6626 110.822 54.912C110.923 55.2181 111.043 55.5175 111.182 55.8082C111.783 56.8 112.775 57.6425 113.625 58.4238C114.409 59.1568 115.034 60.0432 115.46 61.0279C115.847 61.9771 116.104 62.9741 116.226 63.992C116.411 64.9491 116.465 65.9269 116.387 66.8986C115.51 66.9216 114.548 65.8187 113.882 65.3668C112.273 64.2098 111.159 62.4879 110.765 60.5454L110.78 60.5339Z" fill="#FFE380"/>
<path d="M17.2237 60.5339C17.3907 59.55 17.4588 58.5519 17.4267 57.5545C17.4267 56.7388 17.5033 55.6626 17.1739 54.912C17.0712 55.2168 16.9523 55.516 16.8178 55.8082C16.2165 56.8 15.2247 57.6425 14.3707 58.4238C13.5894 59.1588 12.9654 60.0447 12.5363 61.0279C12.1547 61.9789 11.8972 62.9751 11.7704 63.992C11.5852 64.9491 11.5311 65.9269 11.6096 66.8986C12.4866 66.9216 13.4478 65.8187 14.1179 65.3668C15.7227 64.2024 16.8313 62.4774 17.2237 60.5339Z" fill="#FFE380"/>
<path d="M113.457 78.2342C112.657 77.7172 111.73 77.2845 111.075 76.5645C109.57 74.9101 109.015 73.0336 108.731 70.8584C108.601 69.8283 108.796 68.779 108.892 67.7603C108.976 66.9178 108.842 65.8455 109.057 65.026C109.598 65.897 110.257 66.6894 111.014 67.3812C111.984 68.1854 112.81 69.1489 113.457 70.2304C114.395 71.9447 114.725 73.9265 114.391 75.8522C114.261 76.7057 113.941 77.5194 113.457 78.2342Z" fill="#FFE380"/>
<path d="M14.539 78.2342C15.3471 77.7172 16.2662 77.2845 16.9211 76.5645C18.4261 74.9101 18.9814 73.0336 19.2647 70.8584C19.395 69.8283 19.1958 68.779 19.1039 67.7603C19.0235 66.9178 19.1613 65.8455 18.9431 65.026C18.4 65.899 17.7374 66.6918 16.9747 67.3812C16.0594 68.2313 15.1403 69.0968 14.539 70.2304C14.0642 71.0816 13.7427 72.0098 13.5893 72.9724C13.4247 73.9252 13.4247 74.8993 13.5893 75.8522C13.7284 76.7059 14.0526 77.5189 14.539 78.2342Z" fill="#FFE380"/>
<path d="M119.91 81.8685C118.975 82.4927 117.872 82.7876 116.927 83.3697C117.059 81.9726 117.471 80.6166 118.14 79.3831C118.647 78.4226 119.202 77.4882 119.803 76.5837C120.421 75.565 121.174 74.6349 122.043 73.8187C122.866 73.0758 123.743 72.5052 124.597 71.858C125.215 71.4037 125.89 71.0317 126.604 70.7513C126.47 71.3219 126.117 71.9231 125.957 72.5052C125.761 73.1422 125.526 73.7664 125.252 74.374C124.459 76.2467 123.877 78.0926 122.487 79.6206C121.723 80.4771 120.856 81.236 119.906 81.88L119.91 81.8685Z" fill="#FFE380"/>
<path d="M8.08649 81.8685C9.02856 82.4927 10.1238 82.7876 11.0697 83.3697C10.9404 81.9731 10.5301 80.6171 9.86341 79.3831C9.37323 78.4257 8.78346 77.5066 8.19754 76.5837C7.57933 75.566 6.82712 74.636 5.96108 73.8187C5.13389 73.0758 4.25309 72.5052 3.3991 71.858C2.78285 71.4029 2.10947 71.0309 1.39624 70.7513C1.52645 71.3219 1.89024 71.9231 2.04725 72.5052C2.23688 73.1433 2.46975 73.7676 2.74423 74.374C3.53695 76.2467 4.12289 78.0926 5.51303 79.6206C6.27431 80.4737 7.13876 81.2288 8.08649 81.8685Z" fill="#FFE380"/>
<path d="M109.401 87.7507C109.068 88.8383 108.364 88.6928 107.552 88.1107C107.244 87.902 106.983 87.6315 106.785 87.3163C106.587 87.0012 106.457 86.6483 106.403 86.2802C106.25 85.4438 106.171 84.5953 106.169 83.745C106.093 82.7716 106.081 81.7941 106.135 80.8192C106.223 79.858 106.353 78.8814 106.403 77.9279C106.445 77.0815 106.323 76.0131 106.575 75.1974C106.773 75.6458 107.045 76.0575 107.379 76.4152C107.814 77.0257 108.205 77.6654 108.551 78.33C109.569 80.007 110.113 81.9288 110.125 83.8905C110.157 84.8173 110.052 85.7437 109.815 86.6401C109.696 87.0231 109.516 87.3563 109.405 87.7316L109.401 87.7507Z" fill="#FFE380"/>
<path d="M18.5985 87.7507C18.9278 88.8383 19.6363 88.6928 20.4482 88.1107C20.7562 87.902 21.0174 87.6315 21.2152 87.3163C21.413 87.0012 21.5431 86.6483 21.597 86.2802C21.7466 85.4432 21.8247 84.5951 21.8306 83.745C21.9059 82.7715 21.9161 81.7941 21.8612 80.8192C21.777 79.858 21.6468 78.8814 21.597 77.9279C21.5511 77.0815 21.6736 76.0131 21.4247 75.1974C21.2245 75.6452 20.9514 76.0567 20.6166 76.4152C20.1837 77.0265 19.7922 77.6662 19.4448 78.33C18.4264 80.0066 17.8837 81.9289 17.8747 83.8905C17.8405 84.8176 17.9464 85.7446 18.1887 86.6401C18.3036 87.0422 18.4874 87.3754 18.5985 87.7507Z" fill="#FFE380"/>
<path d="M102.96 110.843C105.526 110.713 108.073 110.897 110.619 110.59C110.102 110.924 109.88 111.552 109.356 111.873C108.735 112.256 108.161 112.739 107.529 113.137C106.424 113.887 105.235 114.505 103.986 114.979C102.871 115.329 101.709 115.509 100.54 115.511C99.6399 115.511 98.3187 115.155 97.7673 114.363C97.5783 114.074 97.4871 113.732 97.5071 113.387C97.5271 113.042 97.6572 112.713 97.8783 112.448C98.9774 110.935 101.264 110.916 102.972 110.809L102.96 110.843Z" fill="#FFE380"/>
<path d="M25.0361 110.843C22.4741 110.713 19.9274 110.897 17.377 110.59C17.8939 110.924 18.1199 111.552 18.6407 111.873C19.2611 112.256 19.8432 112.739 20.4713 113.137C21.5752 113.889 22.7643 114.507 24.0136 114.979C25.1291 115.329 26.2911 115.509 27.4602 115.511C28.3563 115.511 29.6852 115.155 30.2367 114.363C30.4257 114.073 30.5166 113.731 30.4959 113.386C30.4752 113.041 30.344 112.712 30.1217 112.448C29.0303 110.97 26.7479 110.931 25.0361 110.843Z" fill="#FFE380"/>
<path fill-rule="evenodd" clip-rule="evenodd" d="M83.7651 43.6016C84.1739 42.741 84.587 41.8268 85.2486 40.3185C85.3677 40.0467 85.4379 40.0005 85.7311 40.0005C85.7469 40.0005 85.7618 40.0004 85.7761 40.0003L85.7762 40.0003C85.8403 39.9996 85.8912 39.9991 85.9381 40.0127C86.1198 40.0655 86.2399 40.3308 86.8253 41.6246L86.8253 41.6246L86.8253 41.6247L86.9315 41.8593C87.0898 42.209 87.3689 42.8138 87.5515 43.2033C87.7343 43.5927 87.8838 43.9331 87.8838 43.9596C87.8838 43.9862 88.0552 44.3719 88.2647 44.8167C88.9637 46.3013 89.3512 47.1491 89.3512 47.1941C89.3512 47.2186 89.5545 47.6682 89.803 48.1931C90.0513 48.7181 90.3983 49.4777 90.5741 49.8812C90.7498 50.2848 91.0968 51.0444 91.3451 51.5694C91.5936 52.0943 91.7969 52.543 91.7969 52.5663C91.7969 52.5897 91.9672 52.9747 92.1755 53.4218C93.0292 55.2548 93.2643 55.7704 93.2643 55.8097C93.2643 55.8325 93.4143 56.1698 93.5975 56.5592C93.7808 56.9487 94.0621 57.5534 94.2229 57.9032L94.7623 59.0771C95.4844 60.6479 95.7101 61.1493 95.7101 61.1828C95.7101 61.2031 95.9041 61.6291 96.1413 62.1295C96.957 63.8501 97.3593 64.7921 97.3116 64.8694C97.2853 64.912 95.9291 64.9468 94.2977 64.9468C92.039 64.9468 91.3099 64.9177 91.2401 64.8246C91.1897 64.7573 91.0226 64.3941 90.8687 64.0175C90.7148 63.6408 90.4852 63.1015 90.3585 62.8191L90.128 62.3055H85.7399H81.3516L81.2067 62.6234C81.1269 62.7982 80.8926 63.3596 80.6859 63.8707C80.4792 64.3819 80.2642 64.8325 80.2082 64.872C80.1085 64.9423 74.0899 64.9812 74.0899 64.9114C74.0899 64.874 74.5032 63.9468 74.9899 62.8924C75.1513 62.5427 75.4813 61.8163 75.7232 61.2783C75.965 60.7402 76.3569 59.8892 76.5939 59.3871C76.8309 58.8851 77.0248 58.4589 77.0248 58.4402C77.0248 58.4036 77.4016 57.5736 78.0151 56.2588C78.2237 55.8117 78.3944 55.4291 78.3944 55.4085C78.3944 55.3878 78.6365 54.8577 78.9324 54.2302C79.2284 53.6028 79.4705 53.073 79.4705 53.0527C79.4705 53.0326 79.6296 52.6739 79.8241 52.2557C80.3278 51.1725 80.5318 50.7262 81.3795 48.854C82.5111 46.3551 82.5944 46.1727 82.9537 45.4068C83.1363 45.0173 83.2858 44.6788 83.2858 44.6545C83.2858 44.6301 83.5014 44.1563 83.7651 43.6016ZM31.6915 42.7777C31.0515 41.869 30.4848 41.0706 30.4322 41.0033C30.3561 40.906 31.0167 40.881 33.6658 40.881H36.995L39.7071 44.9476C41.1987 47.1842 42.4498 48.9782 42.4873 48.9342C42.5247 48.89 42.8996 48.3258 43.3205 47.6801C43.7413 47.0344 44.9259 45.2405 45.9531 43.6936L47.8206 40.881H51.1749H54.5293L54.0398 41.5781C53.7704 41.9615 53.3621 42.5365 53.1323 42.8557C52.9024 43.1749 52.551 43.6646 52.3512 43.9439C52.1516 44.2232 51.8777 44.6058 51.7427 44.7942C51.6078 44.9825 51.0136 45.8189 50.4224 46.6529C49.8313 47.4869 49.2687 48.2735 49.1722 48.401C49.0757 48.5285 48.7768 48.9503 48.5077 49.3385C48.0853 49.9479 47.0896 51.3469 46.4533 52.2251C46.3457 52.3736 46.1709 52.6224 46.065 52.7778C45.9589 52.9334 45.7057 53.2848 45.5025 53.5587L45.1327 54.0568V59.4424C45.1327 64.2632 45.1164 64.8343 44.9779 64.8875C44.8928 64.9201 43.6822 64.9468 42.2876 64.9468H39.7521V59.5323C39.7521 54.2183 39.7484 54.1135 39.552 53.8871C39.442 53.7602 39.2572 53.5003 39.1414 53.3096C39.0256 53.1189 38.9047 52.9408 38.8727 52.9139C38.8408 52.887 37.9611 51.6544 36.9179 50.1747C35.8747 48.6951 34.8955 47.3083 34.7417 47.0931C34.588 46.8779 34.3543 46.5477 34.2222 46.3594C34.0903 46.1711 33.7287 45.6598 33.4188 45.2234C33.1087 44.7869 32.3315 43.6863 31.6915 42.7777ZM57.581 52.8895L57.6058 64.8979L64.4049 64.9249C68.1444 64.9397 71.303 64.9279 71.4241 64.8986L71.6442 64.8453V62.4504V60.0554H67.3398H63.0353V57.7075V55.3596H66.4513C68.3301 55.3596 69.9369 55.3329 70.022 55.3003C70.1573 55.2483 70.1768 54.9403 70.1768 52.8545V50.4682H66.606H63.0353V48.0714V45.6746H67.0952H71.1551V43.2778V40.881H64.3556H57.5561L57.581 52.8895ZM86.3737 53.2566C86.5179 53.6332 86.6907 54.0734 86.7577 54.2348C87.2864 55.5085 88.0794 57.5907 88.0794 57.7056C88.0794 57.7709 87.2646 57.8056 85.7315 57.8056C83.9183 57.8056 83.3838 57.7777 83.3839 57.6833C83.3841 57.5754 84.8051 53.9581 85.046 53.4522C85.0972 53.3446 85.2329 53.0144 85.3475 52.7185L85.6506 51.9359C85.7432 51.6971 85.7497 51.7018 85.9286 52.1315C86.0292 52.3736 86.2296 52.8799 86.3737 53.2566Z" fill="#FFE380"/>
<path d="M32.0944 78.2185C34.8715 76.2362 36.26 74.6599 36.26 73.4897C36.26 72.7736 35.95 72.4155 35.3299 72.4155C34.9806 72.4155 34.723 72.5378 34.5571 72.7823C34.3999 73.0268 34.3126 73.4067 34.2951 73.922H32.1075C32.1599 72.7954 32.5005 71.9483 33.1293 71.3807C33.758 70.8131 34.5527 70.5293 35.5133 70.5293C36.5176 70.5293 37.273 70.7825 37.7795 71.289C38.2947 71.7955 38.5524 72.4548 38.5524 73.267C38.5524 74.1665 38.2074 75.0485 37.5175 75.913C36.8276 76.7689 36.0024 77.4937 35.0418 78.0875H38.6964V79.8952H32.0944V78.2185ZM39.4877 75.2712C39.4877 76.7208 39.7803 77.8692 40.3654 78.7163C40.9505 79.5634 41.8849 79.9869 43.1686 79.9869C44.4436 79.9869 45.3736 79.5634 45.9587 78.7163C46.5526 77.8692 46.8495 76.7208 46.8495 75.2712C46.8495 73.8303 46.5526 72.6906 45.9587 71.8523C45.3736 71.0052 44.4436 70.5816 43.1686 70.5816C41.8849 70.5816 40.9505 71.0052 40.3654 71.8523C39.7803 72.6906 39.4877 73.8303 39.4877 75.2712ZM44.6226 75.2712C44.6226 76.1008 44.5222 76.7427 44.3213 77.1968C44.1292 77.6421 43.745 77.8648 43.1686 77.8648C42.5835 77.8648 42.1905 77.6421 41.9897 77.1968C41.7888 76.7427 41.6884 76.1008 41.6884 75.2712C41.6884 74.4503 41.7888 73.8172 41.9897 73.3718C42.1905 72.9264 42.5835 72.7037 43.1686 72.7037C43.745 72.7037 44.1292 72.9264 44.3213 73.3718C44.5222 73.8084 44.6226 74.4416 44.6226 75.2712ZM47.682 78.2185C50.4591 76.2362 51.8476 74.6599 51.8476 73.4897C51.8476 72.7736 51.5376 72.4155 50.9175 72.4155C50.5682 72.4155 50.3106 72.5378 50.1447 72.7823C49.9875 73.0268 49.9002 73.4067 49.8827 73.922H47.6951C47.7475 72.7954 48.0881 71.9483 48.7169 71.3807C49.3456 70.8131 50.1403 70.5293 51.1009 70.5293C52.1052 70.5293 52.8606 70.7825 53.3671 71.289C53.8823 71.7955 54.1399 72.4548 54.1399 73.267C54.1399 74.1665 53.795 75.0485 53.1051 75.913C52.4152 76.7689 51.59 77.4937 50.6293 78.0875H54.284V79.8952H47.682V78.2185ZM55.0753 75.2712C55.0753 76.7208 55.3679 77.8692 55.953 78.7163C56.5381 79.5634 57.4725 79.9869 58.7562 79.9869C60.0312 79.9869 60.9612 79.5634 61.5463 78.7163C62.1402 77.8692 62.4371 76.7208 62.4371 75.2712C62.4371 73.8303 62.1402 72.6906 61.5463 71.8523C60.9612 71.0052 60.0312 70.5816 58.7562 70.5816C57.4725 70.5816 56.5381 71.0052 55.953 71.8523C55.3679 72.6906 55.0753 73.8303 55.0753 75.2712ZM60.2102 75.2712C60.2102 76.1008 60.1098 76.7427 59.9089 77.1968C59.7168 77.6421 59.3326 77.8648 58.7562 77.8648C58.1711 77.8648 57.7781 77.6421 57.5773 77.1968C57.3764 76.7427 57.276 76.1008 57.276 75.2712C57.276 74.4503 57.3764 73.8172 57.5773 73.3718C57.7781 72.9264 58.1711 72.7037 58.7562 72.7037C59.3326 72.7037 59.7168 72.9264 59.9089 73.3718C60.1098 73.8084 60.2102 74.4416 60.2102 75.2712ZM68.6796 74.4721V76.3322H62.9028V74.4721H68.6796ZM70.2511 78.2185C73.0281 76.2362 74.4166 74.6599 74.4166 73.4897C74.4166 72.7736 74.1066 72.4155 73.4866 72.4155C73.1373 72.4155 72.8797 72.5378 72.7137 72.7823C72.5565 73.0268 72.4692 73.4067 72.4517 73.922H70.2642C70.3166 72.7954 70.6572 71.9483 71.2859 71.3807C71.9147 70.8131 72.7094 70.5293 73.67 70.5293C74.6743 70.5293 75.4296 70.7825 75.9361 71.289C76.4514 71.7955 76.709 72.4548 76.709 73.267C76.709 74.1665 76.3641 75.0485 75.6742 75.913C74.9843 76.7689 74.159 77.4937 73.1984 78.0875H76.8531V79.8952H70.2511V78.2185ZM77.6444 75.2712C77.6444 76.7208 77.9369 77.8692 78.522 78.7163C79.1071 79.5634 80.0415 79.9869 81.3253 79.9869C82.6002 79.9869 83.5303 79.5634 84.1154 78.7163C84.7092 77.8692 85.0061 76.7208 85.0061 75.2712C85.0061 73.8303 84.7092 72.6906 84.1154 71.8523C83.5303 71.0052 82.6002 70.5816 81.3253 70.5816C80.0415 70.5816 79.1071 71.0052 78.522 71.8523C77.9369 72.6906 77.6444 73.8303 77.6444 75.2712ZM82.7793 75.2712C82.7793 76.1008 82.6788 76.7427 82.478 77.1968C82.2859 77.6421 81.9016 77.8648 81.3253 77.8648C80.7402 77.8648 80.3472 77.6421 80.1463 77.1968C79.9455 76.7427 79.845 76.1008 79.845 75.2712C79.845 74.4503 79.9455 73.8172 80.1463 73.3718C80.3472 72.9264 80.7402 72.7037 81.3253 72.7037C81.9016 72.7037 82.2859 72.9264 82.478 73.3718C82.6788 73.8084 82.7793 74.4416 82.7793 75.2712ZM85.8387 78.2185C88.6157 76.2362 90.0042 74.6599 90.0042 73.4897C90.0042 72.7736 89.6942 72.4155 89.0742 72.4155C88.7249 72.4155 88.4672 72.5378 88.3013 72.7823C88.1441 73.0268 88.0568 73.4067 88.0393 73.922H85.8518C85.9042 72.7954 86.2447 71.9483 86.8735 71.3807C87.5023 70.8131 88.2969 70.5293 89.2576 70.5293C90.2618 70.5293 91.0172 70.7825 91.5237 71.289C92.039 71.7955 92.2966 72.4548 92.2966 73.267C92.2966 74.1665 91.9516 75.0485 91.2617 75.913C90.5718 76.7689 89.7466 77.4937 88.786 78.0875H92.4407V79.8952H85.8387V78.2185ZM92.8259 72.8347V70.7388H96.5723V80H94.2144V72.8347H92.8259Z" fill="#FFE380"/>
</svg>
