<svg width="128" height="124" viewBox="0 0 128 124" fill="none" xmlns="http://www.w3.org/2000/svg">
<path d="M43.2916 108.388C43.2916 108.95 43.1251 109.499 42.8131 109.965C42.5011 110.432 42.0577 110.796 41.539 111.01C41.0202 111.225 40.4495 111.281 39.8989 111.171C39.3483 111.061 38.8427 110.791 38.446 110.394C38.0493 109.996 37.7793 109.49 37.6703 108.94C37.5612 108.389 37.618 107.818 37.8333 107.3C38.0487 106.781 38.413 106.338 38.8802 106.027C39.3473 105.716 39.8964 105.55 40.4578 105.551C41.2097 105.552 41.9305 105.851 42.4618 106.383C42.9932 106.915 43.2916 107.636 43.2916 108.388Z" fill="#FFE380"/>
<path d="M90.3953 108.388C90.3945 108.949 90.2277 109.496 89.9158 109.962C89.604 110.427 89.1611 110.79 88.6432 111.004C88.1253 111.218 87.5557 111.273 87.0062 111.163C86.4567 111.054 85.9521 110.784 85.5562 110.387C85.1603 109.991 84.8907 109.486 84.7817 108.936C84.6727 108.386 84.729 107.817 84.9436 107.299C85.1582 106.782 85.5214 106.339 85.9874 106.028C86.4533 105.717 87.0011 105.551 87.5614 105.551C88.3134 105.552 89.0341 105.851 89.5655 106.383C90.0968 106.915 90.3953 107.636 90.3953 108.388Z" fill="#FFE380"/>
<path d="M124.62 44.622C123.642 45.7036 122.808 46.9071 122.139 48.2027C121.513 49.6522 121.135 51.1966 121.02 52.7713C120.821 54.7283 121.135 56.6584 121.02 58.5999C122.41 57.1443 123.61 55.5192 124.593 53.7632C125.149 52.9326 125.589 52.0309 125.903 51.0825C126.179 50.0509 126.278 48.9802 126.198 47.9155C126.144 47.4247 126.13 46.9303 126.156 46.4372C126.236 45.8283 126.661 45.2884 126.761 44.6642C126.86 43.9595 126.792 43.2204 127.09 42.5617C126.225 42.8374 125.558 43.5383 124.972 44.2084C124.85 44.3348 124.735 44.465 124.62 44.5914V44.622Z" fill="#FFE380"/>
<path d="M3.37598 44.622C4.35527 45.7035 5.19065 46.907 5.86137 48.2027C6.48603 49.6524 6.86273 51.1968 6.97577 52.7713C7.1749 54.7283 6.86471 56.6584 6.97577 58.5999C5.58974 57.1404 4.38846 55.516 3.39896 53.7632C2.8449 52.9325 2.40561 52.0308 2.09306 51.0825C1.81887 50.0506 1.71922 48.9802 1.7982 47.9155C1.85437 47.4248 1.86846 46.9303 1.84032 46.4372C1.76373 45.8283 1.33865 45.2884 1.23908 44.6642C1.13951 43.9595 1.20462 43.2204 0.913574 42.5617C1.77523 42.8374 2.44541 43.5383 3.02367 44.2084C3.14622 44.354 3.2611 44.4842 3.37598 44.622Z" fill="#FFE380"/>
<path d="M126.68 63.0807C126.496 64.2811 126.041 65.4241 125.352 66.4239C124.971 66.9867 124.561 67.5287 124.122 68.0476C123.566 68.5955 122.949 69.0785 122.284 69.4875C121.835 69.7891 121.349 70.0299 120.836 70.2037C120.463 70.4116 120.08 70.6008 119.688 70.7705C119.786 70.3548 119.838 69.9298 119.845 69.5029C119.906 68.9131 120.09 68.3808 120.17 67.8064C120.304 66.8032 120.577 65.8236 120.982 64.8959C121.342 63.95 121.784 63.0376 122.303 62.1692C122.882 61.3332 123.536 60.5514 124.256 59.8332C124.791 59.2737 125.393 58.7824 126.049 58.3703C126.622 58.0835 127.119 57.6648 127.5 57.1487C126.975 57.8648 127.117 59.2856 127.067 60.1051C126.991 61.1029 126.863 62.096 126.684 63.0807H126.68Z" fill="#FFE380"/>
<path d="M1.31953 63.0808C1.50028 64.2823 1.95494 65.4262 2.64838 66.424C3.02752 66.9868 3.43661 67.5288 3.87385 68.0477C4.43294 68.5957 5.05216 69.0787 5.7197 69.4876C6.16839 69.7865 6.65528 70.0235 7.16727 70.1923C7.53978 70.4017 7.92329 70.5909 8.31614 70.759C8.21637 70.3438 8.16371 69.9185 8.15914 69.4915C8.09404 68.9017 7.91022 68.3694 7.82597 67.795C7.69585 66.7923 7.42645 65.8127 7.02558 64.8845C6.66 63.9406 6.21682 63.0286 5.70056 62.1579C5.11891 61.3226 4.464 60.5408 3.74363 59.8218C3.20945 59.2615 2.60738 58.77 1.9514 58.3589C1.37994 58.0689 0.883226 57.6509 0.5 57.1373C1.02465 57.8534 0.882955 59.2742 0.92891 60.0937C0.994013 61.0779 1.19316 62.1081 1.31953 63.0808Z" fill="#FFE380"/>
<path d="M102.815 98.975C103.094 97.0296 103.879 95.1455 103.711 93.1273C103.527 90.8946 102.064 88.9913 101.712 86.8123C101.584 86.1907 101.621 85.5464 101.819 84.9435C101.418 85.2207 101.066 85.5623 100.777 85.9545C100.453 86.3822 100.179 86.8462 99.9615 87.337C99.6103 88.2123 99.3773 89.1306 99.2684 90.0674C98.962 91.9822 98.9658 94.3144 99.6283 96.1182C100.107 97.4126 101.275 99.1052 102.838 99.0478C102.838 98.6648 102.995 98.2819 103.021 97.8721" fill="#FFE380"/>
<path d="M25.1854 98.975C24.9097 97.0296 24.1169 95.1455 24.2893 93.1273C24.4693 90.8946 25.9322 88.9913 26.2845 86.8123C26.4142 86.1908 26.3772 85.5461 26.1773 84.9435C26.5779 85.2207 26.9299 85.5623 27.2189 85.9545C27.5445 86.3821 27.8195 86.846 28.0384 87.337C28.3866 88.2131 28.6183 89.1311 28.7278 90.0674C29.038 91.9822 29.0303 94.3144 28.3639 96.1182C27.8929 97.4126 26.7249 99.1052 25.1548 99.0478C25.1548 98.6648 25.0016 98.2819 24.9786 97.8721" fill="#FFE380"/>
<path d="M93.0645 104.804C93.4403 105.81 94.0073 106.735 94.7341 107.527C94.9328 107.708 95.0862 107.934 95.1822 108.185C95.2894 107.94 95.2511 107.618 95.3545 107.339C95.621 106.813 95.9516 106.321 96.3387 105.876C96.9434 105.006 97.3043 103.991 97.3842 102.935C97.5108 101.765 97.4526 100.583 97.2119 99.4308C96.9404 98.3546 96.5446 97.3136 96.0324 96.3289C95.713 95.5215 95.4569 94.6906 95.2665 93.8435C95.0099 94.663 94.5005 95.4098 94.1176 96.2025C93.7269 97.0858 93.388 97.9911 93.1027 98.9139C92.4862 100.829 92.3368 102.885 93.053 104.815L93.0645 104.804Z" fill="#FFE380"/>
<path d="M34.9355 104.804C34.5582 105.811 33.9899 106.735 33.2619 107.527C33.0619 107.705 32.9104 107.932 32.8216 108.185C32.7105 107.94 32.7488 107.618 32.6454 107.339C32.379 106.812 32.047 106.32 31.6574 105.876C31.0548 105.005 30.6929 103.991 30.6081 102.935C30.4847 101.765 30.5441 100.583 30.7842 99.4308C31.0556 98.3546 31.4515 97.3136 31.9637 96.3289C32.2813 95.5209 32.5373 94.6901 32.7296 93.8435C32.9862 94.663 33.4955 95.4098 33.8785 96.2025C34.2709 97.0851 34.6098 97.9905 34.8933 98.9139C35.4984 100.829 35.6593 102.874 34.9355 104.804Z" fill="#FFE380"/>
<path d="M117.06 65.2942C117.064 61.1553 116.824 57.0199 116.341 52.9093C114.862 53.6331 112.614 52.8519 111.546 51.8026C110.809 51.0008 110.282 50.0283 110.014 48.9725C109.729 48.0072 109.492 47.0282 109.306 46.0391C109.168 45.3421 108.666 44.0362 109.053 43.3584C109.589 43.7413 110.037 44.289 110.554 44.7217C111.232 45.3076 111.921 45.8438 112.591 46.4412C113.262 47.0386 113.947 47.5403 114.575 48.1683C114.927 48.5206 115.437 48.8844 115.839 49.2904C115.433 46.7131 114.947 44.2583 114.399 41.9261C114.25 41.9203 114.102 41.905 113.955 41.8802C111.63 41.4436 109.547 39.862 108.122 38.0506C107.33 37.1196 106.685 36.0737 106.207 34.9486C106.035 34.4967 105.909 33.9989 105.771 33.524C105.668 33.1411 105.388 32.4862 105.442 32.1377C106.157 32.4829 106.854 32.8664 107.529 33.2866C108.525 33.8034 109.487 34.3841 110.409 35.0252C111.096 35.4971 111.756 36.0086 112.385 36.557C112.538 36.7026 112.848 36.8979 113.15 37.1162C109.237 23.6438 103.477 15.077 101.225 12.0631C101.118 12.0287 99.6091 10.7687 99.3794 10.5964C98.3645 9.8305 97.1467 9.34415 95.9979 8.73525C95.0927 8.31774 94.2652 7.74923 93.5508 7.05406C92.8997 6.36091 92.4287 5.52222 91.8351 4.81758C90.6441 3.37383 89.9203 1.71565 89.2655 0C90.4723 0.83242 91.7683 1.52732 93.1295 2.07179C94.4094 2.55015 95.6523 3.12232 96.848 3.78362C97.9715 4.46576 98.9905 5.30674 99.8734 6.28048C100.6 7.05653 101.169 7.96715 101.547 8.96118C101.727 9.42838 102.198 10.6232 102.255 10.7687C104.699 14.1349 118.956 35.0137 118.956 64.7121C118.92 73.3939 116.916 81.9546 113.093 89.7498C114.177 88.4477 115.942 87.6703 117.501 87.184C118.363 86.9159 119.22 86.7627 120.071 86.5291C120.997 86.2763 121.939 85.9968 122.885 85.8092C122.502 85.8857 122.146 86.3759 121.932 86.6631C121.526 87.1763 121.112 87.678 120.725 88.195C119.611 89.7268 118.929 91.5343 117.662 92.9743C116.914 93.8369 115.98 94.519 114.931 94.9695C114.219 95.2644 112.99 95.4558 112.27 95.0882C111.389 94.6401 111.347 93.6521 111.615 92.6526C110.066 95.4991 108.334 98.2418 106.43 100.863C107.183 100.453 108 100.171 108.846 100.028C110.241 99.815 111.648 99.6872 113.059 99.6454C114.433 99.5535 115.762 99.2624 117.122 99.0556C115.937 100.138 114.831 101.304 113.813 102.544C113.119 103.243 112.348 103.861 111.515 104.386C110.733 104.971 109.865 105.43 108.942 105.746C107.996 106.056 106.483 106.355 105.564 105.845C104.768 105.413 104.369 104.314 104.5 103.456C104.503 103.418 104.511 103.381 104.522 103.345C94.2937 116.338 82.3684 123.496 82.3684 123.496V118.9C82.3684 118.9 117.03 97.5085 117.03 65.2865L117.06 65.2942Z" fill="#FFE380"/>
<path d="M10.9356 65.2942C10.9345 61.1552 11.1774 57.0197 11.6633 52.9093C13.1338 53.6331 15.3818 52.8519 16.4502 51.8026C17.1921 51.004 17.7191 50.0303 17.9821 48.9725C18.2722 48.0083 18.5099 47.029 18.6944 46.0391C18.8399 45.3421 19.3339 44.0362 18.9433 43.3584C18.4148 43.7413 17.9629 44.289 17.4459 44.7217C16.7719 45.3076 16.0788 45.8438 15.4124 46.4412C14.7461 47.0386 14.0567 47.5403 13.4287 48.1683C13.0764 48.5206 12.567 48.8844 12.1688 49.2904C12.5517 46.7131 13.0572 44.2583 13.601 41.9261C13.75 41.9206 13.8983 41.9052 14.0453 41.8802C16.3775 41.4436 18.4493 39.862 19.8777 38.0506C20.6681 37.1187 21.3137 36.0729 21.7925 34.9486C21.9648 34.4967 22.0912 33.9989 22.2252 33.524C22.3363 33.1411 22.6082 32.4862 22.5622 32.1377C21.8451 32.4853 21.146 32.8687 20.4675 33.2866C19.4727 33.8043 18.5121 34.385 17.5914 35.0252C16.905 35.499 16.2453 36.0104 15.6154 36.557C15.4622 36.7026 15.1597 36.8979 14.8495 37.1162C18.7633 23.6438 24.5191 15.077 26.7709 12.0631C26.882 12.0287 28.3946 10.7687 28.6206 10.5964C29.6431 9.8305 30.8532 9.34415 32.0059 8.73525C32.91 8.31582 33.7372 7.74752 34.453 7.05406C35.104 6.36091 35.5674 5.52222 36.161 4.81758C37.3558 3.37383 38.0758 1.71565 38.7345 0C37.5277 0.83242 36.2316 1.52732 34.8705 2.07179C33.5912 2.55163 32.3484 3.12375 31.1519 3.78362C30.0291 4.46676 29.0103 5.30763 28.1266 6.28048C27.4008 7.05754 26.8325 7.96789 26.4531 8.96118C26.2769 9.42838 25.8059 10.6232 25.7523 10.7687C23.3013 14.1349 9.04767 35.0137 9.04767 64.7121C9.08221 73.3937 11.0855 81.9543 14.9069 89.7498C13.827 88.4477 12.0615 87.6703 10.4991 87.184C9.63742 86.9159 8.78727 86.7627 7.92944 86.5291C7.00269 86.2763 6.06826 85.9968 5.11853 85.8092C5.50149 85.8857 5.86147 86.3759 6.07592 86.6631C6.45888 87.1763 6.89163 87.678 7.28225 88.195C8.39665 89.7268 9.07831 91.5343 10.3459 92.9743C11.0918 93.8341 12.0209 94.5159 13.0649 94.9695C13.7848 95.2644 15.0141 95.4558 15.7226 95.0882C16.6072 94.6401 16.6532 93.6521 16.3813 92.6526C17.9297 95.4991 19.6618 98.2418 21.5665 100.863C20.8131 100.452 19.9964 100.17 19.1501 100.028C17.755 99.815 16.3482 99.6872 14.9376 99.6454C13.5666 99.5535 12.2377 99.2624 10.882 99.0556C12.0631 100.142 13.1686 101.307 14.1908 102.544C14.8834 103.245 15.6544 103.863 16.4885 104.386C17.2721 104.97 18.1416 105.429 19.0658 105.746C20.0117 106.056 21.5206 106.355 22.4397 105.845C23.24 105.413 23.6307 104.314 23.5043 103.456C23.5064 103.419 23.5064 103.382 23.5043 103.345C33.7331 116.338 45.6507 123.496 45.6507 123.496V118.9C45.6507 118.9 10.9356 97.5123 10.9356 65.2942Z" fill="#FFE380"/>
<path d="M109.26 20.6145C108.728 20.8098 108.559 19.3584 108.402 19.0827C107.942 18.2708 107.2 17.6619 106.748 16.8769C105.872 15.3333 105.313 13.6302 105.105 11.8678C104.988 11.0178 104.944 10.1594 104.975 9.30196C105.017 8.53604 104.89 7.41782 105.587 6.87019C106.162 6.4183 106.606 7.75099 106.805 8.2067C107.14 9.04414 107.524 9.86125 107.954 10.6538C108.482 11.4128 108.968 12.2003 109.409 13.0128C109.827 13.9134 110.134 14.861 110.324 15.8352C110.536 16.7174 110.527 17.6381 110.298 18.5159C110.16 19.0176 109.846 20.3885 109.267 20.5915L109.26 20.6145Z" fill="#FFE380"/>
<path d="M18.7326 20.6145C19.2688 20.8098 19.4411 19.3584 19.5981 19.0827C20.0538 18.2708 20.8044 17.6619 21.2525 16.8769C22.1276 15.3327 22.6874 13.63 22.8992 11.8678C23.0036 11.0167 23.0446 10.1591 23.0217 9.30196C22.9758 8.53604 23.0983 7.41782 22.4013 6.87019C21.8307 6.4183 21.3827 7.75099 21.1797 8.2067C20.8482 9.04556 20.4645 9.86286 20.0308 10.6538C19.5027 11.412 19.0181 12.1996 18.5794 13.0128C18.1624 13.9139 17.8539 14.8613 17.6603 15.8352C17.4527 16.7178 17.4619 17.6376 17.6872 18.5159C17.8403 19.0405 18.1582 20.4077 18.7326 20.6145Z" fill="#FFE380"/>
<path d="M94.179 12.5303C94.8683 12.4652 96.0172 12.9477 96.7027 13.1698C97.9003 13.5147 99.0714 13.946 100.207 14.4604C101.165 14.9119 102.03 15.5393 102.757 16.3101C103.397 17.0032 104.235 18.1061 104.481 19.0252C103.803 19.1861 103.098 18.9946 102.416 18.9946C101.68 18.9866 100.953 18.829 100.279 18.5312C99.3653 18.1033 98.5383 17.5099 97.84 16.7811C96.4941 15.4774 95.2687 14.0546 94.179 12.5303Z" fill="#FFE380"/>
<path d="M33.8212 12.5303C33.128 12.4652 31.9829 12.9477 31.2936 13.1698C30.0955 13.5134 28.9244 13.9448 27.7896 14.4604C26.8311 14.9119 25.966 15.5393 25.2391 16.3101C24.6034 17.0032 23.7647 18.1061 23.512 19.0252C24.1936 19.1861 24.9021 18.9946 25.5761 18.9946C26.3149 18.9867 27.0445 18.8291 27.7207 18.5312C28.6354 18.1024 29.4635 17.5092 30.1639 16.7811C31.5055 15.4743 32.7293 14.0519 33.8212 12.5303Z" fill="#FFE380"/>
<path d="M105.74 24.0919C107.525 25.3457 108.874 27.1247 109.601 29.1814C108.989 29.5057 108.309 29.6778 107.617 29.6831C105.587 29.6525 103.91 28.1858 102.769 26.6654C102.153 25.7515 101.621 24.7837 101.179 23.7741C100.753 22.9328 100.385 22.0626 100.08 21.17C100.988 21.5529 101.849 22.0355 102.761 22.4491C103.801 22.9095 104.799 23.4592 105.744 24.0919H105.74Z" fill="#FFE380"/>
<path d="M117.087 30.9353C116.754 31.4791 116.383 32.2986 115.766 32.5935C114.866 33.0109 114.169 31.6744 113.851 31.031C113.393 29.977 113.107 28.8559 113.005 27.7108C112.915 26.7264 112.931 25.7351 113.055 24.7544C113.109 23.6835 113.237 22.6177 113.438 21.5644C113.694 20.5112 114.043 19.4581 114.384 18.4279C114.525 17.999 114.686 17.5778 114.817 17.145C114.928 16.7889 114.889 16.4174 115.119 16.1149C115.602 16.8387 115.835 17.8535 116.218 18.6654C116.695 19.5592 117.098 20.4903 117.424 21.4495C118.041 23.5864 118.428 25.7118 118.007 27.9253C117.8 29.0052 117.624 29.9817 117.057 30.9353H117.087Z" fill="#FFE380"/>
<path d="M10.9088 30.9353C11.2458 31.4791 11.6173 32.2986 12.2377 32.5935C13.13 33.0109 13.8269 31.6744 14.1333 31.031C14.5887 29.9758 14.8744 28.8553 14.9797 27.7108C15.0721 26.7265 15.0554 25.735 14.9299 24.7544C14.8773 23.6834 14.7493 22.6174 14.5469 21.5644C14.298 20.5112 13.9457 19.4581 13.601 18.4279C13.4555 17.999 13.3023 17.5778 13.1683 17.145C13.061 16.7889 13.0955 16.4174 12.8696 16.1149C12.3832 16.8387 12.1534 17.8535 11.7705 18.6654C11.2924 19.5591 10.8877 20.4902 10.5603 21.4495C9.94378 23.5864 9.55699 25.7118 9.97824 27.9253C10.1659 29.0052 10.3191 29.9817 10.9088 30.9353Z" fill="#FFE380"/>
<path d="M122.556 38.5024C122.176 40.0085 121.611 41.462 120.875 42.8298C120.389 43.7872 119.573 44.534 118.96 45.3803C118.96 44.6986 118.527 43.8485 118.397 43.1706C118.309 42.7465 118.253 42.3164 118.229 41.8839C118.202 41.3056 118.175 40.735 118.167 40.1759C118.066 38.3116 118.338 36.4458 118.968 34.6881C119.385 33.7 119.874 32.7438 120.431 31.8275C120.725 31.2578 121.05 30.7043 121.403 30.1692C121.564 29.9471 122.265 29.0204 122.514 28.9821C122.843 28.9246 122.897 29.9663 122.931 30.2497C123.06 31.4091 123.109 32.5761 123.077 33.7422C123.09 35.3428 122.922 36.9397 122.575 38.5024H122.556Z" fill="#FFE380"/>
<path d="M5.44023 38.5024C5.81881 40.0091 6.38353 41.4627 7.12139 42.8298C7.61158 43.7872 8.42345 44.534 9.03618 45.3803C9.03618 44.6986 9.47277 43.8485 9.60297 43.1706C9.68732 42.7459 9.74361 42.316 9.77147 41.8839C9.79445 41.3056 9.82125 40.735 9.83274 40.1759C9.93236 38.3117 9.66028 36.4462 9.03235 34.6881C8.61423 33.6999 8.12401 32.7438 7.56564 31.8275C7.27242 31.2579 6.94899 30.7043 6.59675 30.1692C6.43207 29.9471 5.7351 29.0204 5.47852 28.9821C5.15683 28.9246 5.09555 29.9663 5.06492 30.2497C4.93738 31.4092 4.89004 32.5762 4.92323 33.7422C4.91489 35.3434 5.08834 36.9403 5.44023 38.5024Z" fill="#FFE380"/>
<path d="M110.78 60.5339C110.609 59.5505 110.538 58.5522 110.569 57.5545C110.569 56.7388 110.493 55.6626 110.822 54.912C110.923 55.2181 111.043 55.5175 111.182 55.8082C111.783 56.8 112.775 57.6425 113.625 58.4238C114.409 59.1568 115.034 60.0432 115.46 61.0279C115.847 61.9771 116.104 62.9741 116.226 63.992C116.411 64.9491 116.465 65.9269 116.387 66.8986C115.51 66.9216 114.548 65.8187 113.882 65.3668C112.273 64.2098 111.159 62.4879 110.765 60.5454L110.78 60.5339Z" fill="#FFE380"/>
<path d="M17.2237 60.5339C17.3907 59.55 17.4588 58.5519 17.4267 57.5545C17.4267 56.7388 17.5033 55.6626 17.1739 54.912C17.0712 55.2168 16.9523 55.516 16.8178 55.8082C16.2165 56.8 15.2247 57.6425 14.3707 58.4238C13.5894 59.1588 12.9654 60.0447 12.5363 61.0279C12.1547 61.9789 11.8972 62.9751 11.7704 63.992C11.5852 64.9491 11.5311 65.9269 11.6096 66.8986C12.4866 66.9216 13.4478 65.8187 14.1179 65.3668C15.7227 64.2024 16.8313 62.4774 17.2237 60.5339Z" fill="#FFE380"/>
<path d="M113.457 78.2342C112.657 77.7172 111.73 77.2845 111.075 76.5645C109.57 74.9101 109.015 73.0336 108.731 70.8584C108.601 69.8283 108.796 68.779 108.892 67.7603C108.976 66.9178 108.842 65.8455 109.057 65.026C109.598 65.897 110.257 66.6894 111.014 67.3812C111.984 68.1854 112.81 69.1489 113.457 70.2304C114.395 71.9447 114.725 73.9265 114.391 75.8522C114.261 76.7057 113.941 77.5194 113.457 78.2342Z" fill="#FFE380"/>
<path d="M14.5392 78.2342C15.3472 77.7172 16.2663 77.2845 16.9212 76.5645C18.4262 74.9101 18.9815 73.0336 19.2649 70.8584C19.3951 69.8283 19.1959 68.779 19.104 67.7603C19.0236 66.9178 19.1615 65.8455 18.9432 65.026C18.4001 65.899 17.7376 66.6918 16.9748 67.3812C16.0595 68.2313 15.1404 69.0968 14.5392 70.2304C14.0643 71.0816 13.7428 72.0098 13.5894 72.9724C13.4248 73.9252 13.4248 74.8993 13.5894 75.8522C13.7286 76.7059 14.0527 77.5189 14.5392 78.2342Z" fill="#FFE380"/>
<path d="M119.91 81.8685C118.975 82.4927 117.872 82.7876 116.927 83.3697C117.059 81.9726 117.471 80.6166 118.14 79.3831C118.647 78.4226 119.202 77.4882 119.803 76.5837C120.421 75.565 121.174 74.6349 122.043 73.8187C122.866 73.0758 123.743 72.5052 124.597 71.858C125.215 71.4037 125.89 71.0317 126.604 70.7513C126.47 71.3219 126.117 71.9231 125.957 72.5052C125.761 73.1422 125.526 73.7664 125.252 74.374C124.459 76.2467 123.877 78.0926 122.487 79.6206C121.723 80.4771 120.856 81.236 119.906 81.88L119.91 81.8685Z" fill="#FFE380"/>
<path d="M8.08649 81.8685C9.02856 82.4927 10.1238 82.7876 11.0697 83.3697C10.9404 81.9731 10.5301 80.6171 9.86341 79.3831C9.37323 78.4257 8.78346 77.5066 8.19754 76.5837C7.57933 75.566 6.82712 74.636 5.96108 73.8187C5.13389 73.0758 4.25309 72.5052 3.3991 71.858C2.78285 71.4029 2.10947 71.0309 1.39624 70.7513C1.52645 71.3219 1.89024 71.9231 2.04725 72.5052C2.23688 73.1433 2.46975 73.7676 2.74423 74.374C3.53695 76.2467 4.12289 78.0926 5.51303 79.6206C6.27431 80.4737 7.13876 81.2288 8.08649 81.8685Z" fill="#FFE380"/>
<path d="M109.401 87.7507C109.068 88.8383 108.364 88.6928 107.552 88.1107C107.244 87.902 106.983 87.6315 106.785 87.3163C106.587 87.0012 106.457 86.6483 106.403 86.2802C106.25 85.4438 106.171 84.5953 106.169 83.745C106.093 82.7716 106.081 81.7941 106.135 80.8192C106.223 79.858 106.353 78.8814 106.403 77.9279C106.445 77.0815 106.323 76.0131 106.575 75.1974C106.773 75.6458 107.045 76.0575 107.379 76.4152C107.814 77.0257 108.205 77.6654 108.551 78.33C109.569 80.007 110.113 81.9288 110.125 83.8905C110.157 84.8173 110.052 85.7437 109.815 86.6401C109.696 87.0231 109.516 87.3563 109.405 87.7316L109.401 87.7507Z" fill="#FFE380"/>
<path d="M18.5985 87.7507C18.9278 88.8383 19.6363 88.6928 20.4482 88.1107C20.7562 87.902 21.0174 87.6315 21.2152 87.3163C21.413 87.0012 21.5431 86.6483 21.597 86.2802C21.7466 85.4432 21.8247 84.5951 21.8306 83.745C21.9059 82.7715 21.9161 81.7941 21.8612 80.8192C21.777 79.858 21.6468 78.8814 21.597 77.9279C21.5511 77.0815 21.6736 76.0131 21.4247 75.1974C21.2245 75.6452 20.9514 76.0567 20.6166 76.4152C20.1837 77.0265 19.7922 77.6662 19.4448 78.33C18.4264 80.0066 17.8837 81.9289 17.8747 83.8905C17.8405 84.8176 17.9464 85.7446 18.1887 86.6401C18.3036 87.0422 18.4874 87.3754 18.5985 87.7507Z" fill="#FFE380"/>
<path d="M102.96 110.843C105.526 110.713 108.073 110.897 110.619 110.59C110.102 110.924 109.88 111.552 109.356 111.873C108.735 112.256 108.161 112.739 107.529 113.137C106.424 113.887 105.235 114.505 103.986 114.979C102.871 115.329 101.709 115.509 100.54 115.511C99.6399 115.511 98.3187 115.155 97.7673 114.363C97.5783 114.074 97.4871 113.732 97.5071 113.387C97.5271 113.042 97.6572 112.713 97.8783 112.448C98.9774 110.935 101.264 110.916 102.972 110.809L102.96 110.843Z" fill="#FFE380"/>
<path d="M25.036 110.843C22.474 110.713 19.9273 110.897 17.3768 110.59C17.8938 110.924 18.1198 111.552 18.6406 111.873C19.261 112.256 19.8431 112.739 20.4711 113.137C21.5751 113.889 22.7642 114.507 24.0135 114.979C25.1289 115.329 26.291 115.509 27.4601 115.511C28.3562 115.511 29.6851 115.155 30.2365 114.363C30.4256 114.073 30.5165 113.731 30.4958 113.386C30.4751 113.041 30.3439 112.712 30.1216 112.448C29.0302 110.97 26.7478 110.931 25.036 110.843Z" fill="#FFE380"/>
<path fill-rule="evenodd" clip-rule="evenodd" d="M83.7651 53.0068C84.1739 52.1462 84.587 51.232 85.2486 49.7236C85.3677 49.4519 85.4379 49.4057 85.7311 49.4057C85.7469 49.4057 85.7618 49.4056 85.7761 49.4054L85.7762 49.4054C85.8403 49.4048 85.8912 49.4043 85.9381 49.4179C86.1198 49.4707 86.2399 49.7359 86.8253 51.0297L86.8253 51.0298L86.8253 51.0298L86.9315 51.2644C87.0898 51.6142 87.3689 52.219 87.5515 52.6084C87.7343 52.9979 87.8838 53.3382 87.8838 53.3647C87.8838 53.3913 88.0552 53.7771 88.2647 54.2219C88.9637 55.7064 89.3512 56.5542 89.3512 56.5992C89.3512 56.6238 89.5545 57.0733 89.803 57.5983C90.0513 58.1232 90.3983 58.8828 90.5741 59.2864C90.7498 59.6899 91.0968 60.4496 91.3451 60.9745C91.5936 61.4995 91.7969 61.9481 91.7969 61.9715C91.7969 61.9949 91.9672 62.3798 92.1755 62.8269C93.0292 64.6599 93.2643 65.1756 93.2643 65.2149C93.2643 65.2377 93.4143 65.5749 93.5975 65.9644C93.7808 66.3538 94.0621 66.9586 94.2229 67.3083L94.7623 68.4823C95.4844 70.053 95.7101 70.5545 95.7101 70.5879C95.7101 70.6083 95.9041 71.0342 96.1413 71.5346C96.957 73.2552 97.3593 74.1972 97.3116 74.2745C97.2853 74.3172 95.9291 74.352 94.2977 74.352C92.039 74.352 91.3099 74.3228 91.2401 74.2297C91.1897 74.1625 91.0226 73.7993 90.8687 73.4226C90.7148 73.046 90.4852 72.5067 90.3585 72.2242L90.128 71.7106H85.7399H81.3516L81.2067 72.0286C81.1269 72.2034 80.8926 72.7647 80.6859 73.2759C80.4792 73.787 80.2642 74.2376 80.2082 74.2772C80.1085 74.3475 74.0899 74.3863 74.0899 74.3166C74.0899 74.2791 74.5032 73.352 74.9899 72.2976C75.1513 71.9479 75.4813 71.2215 75.7232 70.6834C75.965 70.1454 76.3569 69.2944 76.5939 68.7923C76.8309 68.2902 77.0248 67.8641 77.0248 67.8453C77.0248 67.8087 77.4016 66.9788 78.0151 65.6639C78.2237 65.2169 78.3944 64.8342 78.3944 64.8136C78.3944 64.793 78.6365 64.2628 78.9324 63.6354C79.2284 63.008 79.4705 62.4781 79.4705 62.4579C79.4705 62.4377 79.6296 62.079 79.8241 61.6609C80.3278 60.5776 80.5318 60.1313 81.3795 58.2592C82.5111 55.7603 82.5944 55.5778 82.9537 54.8119C83.1363 54.4224 83.2858 54.084 83.2858 54.0596C83.2858 54.0352 83.5014 53.5615 83.7651 53.0068ZM31.6915 52.1829C31.0515 51.2741 30.4848 50.4757 30.4322 50.4084C30.3561 50.3111 31.0167 50.2862 33.6658 50.2862H36.995L39.7071 54.3528C41.1987 56.5894 42.4498 58.3833 42.4873 58.3393C42.5247 58.2952 42.8996 57.7309 43.3205 57.0852C43.7413 56.4396 44.9259 54.6457 45.9531 53.0987L47.8206 50.2862H51.1749H54.5293L54.0398 50.9833C53.7704 51.3667 53.3621 51.9416 53.1323 52.2608C52.9024 52.58 52.551 53.0698 52.3512 53.3491C52.1516 53.6284 51.8777 54.011 51.7427 54.1993C51.6078 54.3876 51.0136 55.2241 50.4224 56.058C49.8313 56.892 49.2687 57.6787 49.1722 57.8061C49.0757 57.9336 48.7768 58.3555 48.5077 58.7436C48.0853 59.353 47.0896 60.7521 46.4533 61.6303C46.3457 61.7788 46.1709 62.0275 46.065 62.183C45.9589 62.3385 45.7057 62.6899 45.5025 62.9639L45.1327 63.4619V68.8476C45.1327 73.6684 45.1164 74.2395 44.9779 74.2926C44.8928 74.3253 43.6822 74.352 42.2876 74.352H39.7521V68.9375C39.7521 63.6234 39.7484 63.5187 39.552 63.2923C39.442 63.1654 39.2572 62.9055 39.1414 62.7148C39.0256 62.524 38.9047 62.346 38.8727 62.3191C38.8408 62.2922 37.9611 61.0595 36.9179 59.5799C35.8747 58.1002 34.8955 56.7135 34.7417 56.4983C34.588 56.2831 34.3543 55.9529 34.2222 55.7646C34.0903 55.5762 33.7287 55.065 33.4188 54.6286C33.1087 54.1921 32.3315 53.0915 31.6915 52.1829ZM57.581 62.2946L57.6058 74.3031L64.4049 74.3301C68.1444 74.3449 71.303 74.333 71.4241 74.3038L71.6442 74.2505V71.8555V69.4606H67.3398H63.0353V67.1127V64.7648H66.4513C68.3301 64.7648 69.9369 64.7381 70.022 64.7054C70.1573 64.6535 70.1768 64.3455 70.1768 62.2597V59.8734H66.606H63.0353V57.4766V55.0798H67.0952H71.1551V52.683V50.2862H64.3556H57.5561L57.581 62.2946ZM86.3737 62.6617C86.5179 63.0383 86.6907 63.4786 86.7577 63.64C87.2864 64.9136 88.0794 66.9958 88.0794 67.1108C88.0794 67.176 87.2646 67.2107 85.7315 67.2107C83.9183 67.2107 83.3838 67.1829 83.3839 67.0884C83.3841 66.9805 84.8051 63.3632 85.046 62.8574C85.0972 62.7497 85.2329 62.4196 85.3475 62.1236L85.6506 61.341C85.7432 61.1022 85.7497 61.1069 85.9286 61.5367C86.0292 61.7788 86.2296 62.2851 86.3737 62.6617Z" fill="#FFE380"/>
</svg>
