<svg width="25" height="18" viewBox="0 0 25 18" fill="none" xmlns="http://www.w3.org/2000/svg">
<path fill-rule="evenodd" clip-rule="evenodd" d="M12.4999 0C12.5 0 12.5001 0 12.5001 1L12.5001 2L12.4246 2.00011C12.3746 2.00022 12.3007 2.00044 12.2058 2.00089C12.016 2.00178 11.7426 2.00356 11.4089 2.00713C10.7411 2.01427 9.83406 2.02855 8.87479 2.05706C7.91391 2.08561 6.90869 2.12821 6.0422 2.19141C5.15409 2.25619 4.49421 2.33761 4.16544 2.42419C3.86674 2.51 3.59566 2.67253 3.37922 2.89566C3.16809 3.11333 3.01618 3.38119 2.93769 3.67375C2.63815 5.34737 2.49167 7.04482 2.50007 8.74506L2.50013 8.75628C2.48941 10.4635 2.63479 12.1681 2.93456 13.8487C3.02119 14.1264 3.17461 14.3788 3.38166 14.5837C3.59857 14.7984 3.86702 14.9537 4.16122 15.0347C4.48854 15.1217 5.15028 15.2035 6.0422 15.2686C6.90869 15.3318 7.91391 15.3744 8.87479 15.4029C9.83406 15.4314 10.7411 15.4457 11.4089 15.4529C11.7426 15.4564 12.016 15.4582 12.2058 15.4591C12.3007 15.4596 12.3746 15.4598 12.4246 15.4599H12.5756C12.6256 15.4598 12.6995 15.4596 12.7944 15.4591C12.9841 15.4582 13.2576 15.4564 13.5913 15.4529C14.259 15.4457 15.1661 15.4314 16.1254 15.4029C17.0863 15.3744 18.0915 15.3318 18.958 15.2686C19.8461 15.2038 20.506 15.1224 20.8347 15.0358C21.1334 14.95 21.4045 14.7875 21.6209 14.5643C21.8321 14.3467 21.984 14.0788 22.0625 13.7863C22.3597 12.1253 22.5062 10.4409 22.5001 8.75359L22.5001 8.74372C22.5108 7.03058 22.3644 5.32008 22.0625 3.63377C21.984 3.3412 21.8321 3.07333 21.6209 2.85566C21.407 2.63509 21.1396 2.47373 20.845 2.38717C20.505 2.3072 19.8427 2.23348 18.9643 2.17498C18.096 2.11716 17.0894 2.07822 16.128 2.05213C15.168 2.02609 14.2603 2.01304 13.5922 2.00651C13.2583 2.00325 12.9847 2.00162 12.7948 2.00081L12.5758 2.0001L12.5001 2L12.5001 1C12.5001 0 12.5 0 12.4999 0L12.5798 0.000104606C12.6313 0.000208557 12.7068 0.000415921 12.8034 0.000829518C12.9964 0.00165659 13.2737 0.00330883 13.6117 0.00661021C14.2874 0.0132093 15.2072 0.0264141 16.1822 0.0528679C17.1558 0.079282 18.1916 0.119094 19.0972 0.179398C19.9768 0.237978 20.8116 0.320168 21.3373 0.448543C21.349 0.451407 21.3607 0.454482 21.3723 0.457769C22.0124 0.638862 22.5934 0.985664 23.0565 1.46315C23.5197 1.94063 23.8486 2.53189 24.0102 3.17719L23.0401 3.42L24.0242 3.24249C24.3521 5.06021 24.5114 6.90432 24.5001 8.75133C24.5063 10.5707 24.3471 12.3869 24.0242 14.1774C24.0203 14.1994 24.0156 14.2212 24.0102 14.2428C23.8486 14.8881 23.5197 15.4794 23.0565 15.9569C22.5934 16.4343 22.0124 16.7811 21.3723 16.9622L21.3584 16.966C20.8248 17.1088 19.9828 17.1992 19.1035 17.2633C18.1962 17.3295 17.1589 17.3731 16.1848 17.4021C15.2091 17.4311 14.2886 17.4455 13.6127 17.4528C13.2745 17.4564 12.997 17.4582 12.8038 17.4591C12.7071 17.4595 12.6316 17.4598 12.58 17.4599L12.5005 17.46L12.4202 17.4599C12.3686 17.4598 12.293 17.4595 12.1964 17.4591C12.0032 17.4582 11.7257 17.4564 11.3875 17.4528C10.7115 17.4455 9.79111 17.4311 8.81538 17.4021C7.84126 17.3731 6.80398 17.3295 5.89671 17.2633C5.01741 17.1992 4.17537 17.1088 3.64172 16.966L3.63616 16.9646C3.00909 16.793 2.43687 16.4626 1.97479 16.0052C1.51271 15.5479 1.17639 14.9792 0.998325 14.3539C0.989286 14.3222 0.981823 14.29 0.975965 14.2575C0.648126 12.44 0.488818 10.5961 0.500068 8.74933C0.491354 6.91636 0.650649 5.08643 0.975958 3.28253C0.979912 3.2606 0.984598 3.23881 0.990009 3.21719C1.15153 2.57189 1.48048 1.98063 1.94364 1.50315C2.4068 1.02566 2.98776 0.678861 3.62785 0.497769L3.64172 0.493952C4.17537 0.351232 5.01741 0.260847 5.89671 0.196712C6.80398 0.130537 7.84125 0.0868881 8.81538 0.0579413C9.79111 0.0289468 10.7115 0.0144762 11.3875 0.00724471C11.7257 0.00362682 12.0032 0.00181603 12.1964 0.000909448C12.293 0.000456095 12.3686 0.000228763 12.4202 0.000114739L12.4999 0Z" fill="#1A1A1A"/>
<path fill-rule="evenodd" clip-rule="evenodd" d="M9.74718 4.61559C10.055 4.43653 10.4348 4.43468 10.7443 4.61072L16.4943 7.88072C16.8069 8.05848 17 8.39039 17 8.74998C17 9.10958 16.8069 9.44148 16.4943 9.61925L10.7443 12.8892C10.4348 13.0653 10.055 13.0634 9.74718 12.8844C9.43937 12.7053 9.25 12.3761 9.25 12.02V5.47998C9.25 5.12388 9.43937 4.79464 9.74718 4.61559ZM11.25 7.19907V10.3009L13.9771 8.74998L11.25 7.19907Z" fill="#1A1A1A"/>
</svg>
