<svg width="16" height="12" viewBox="0 0 16 12" fill="none" xmlns="http://www.w3.org/2000/svg">
<path fill-rule="evenodd" clip-rule="evenodd" d="M8.00029 0L8.05352 7.00951e-05L8.20256 0.000550032C8.33127 0.00110003 8.51615 0.00221003 8.74148 0.00441003C9.19189 0.00881003 9.80512 0.0176099 10.4551 0.0352499C11.1042 0.0528499 11.7948 0.0794001 12.3984 0.1196C12.9849 0.15865 13.5414 0.21345 13.8919 0.29903C13.8997 0.30094 13.9075 0.30299 13.9152 0.30518C14.3419 0.42591 14.7293 0.65711 15.038 0.97543C15.3468 1.29375 15.5661 1.68792 15.6738 2.11813L15.6831 2.16166C15.9017 3.37347 16.0079 4.60288 16.0004 5.83422C16.0046 7.04715 15.8984 8.2579 15.6831 9.4516C15.6805 9.4663 15.6774 9.4808 15.6738 9.4952C15.5661 9.9254 15.3468 10.3196 15.038 10.6379C14.7293 10.9562 14.3419 11.1874 13.9152 11.3082L13.906 11.3107C13.5502 11.4058 12.9888 11.4661 12.4026 11.5089C11.7978 11.553 11.1063 11.5821 10.4569 11.6014C9.80637 11.6207 9.19275 11.6303 8.7421 11.6352C8.51664 11.6376 8.33164 11.6388 8.20283 11.6394L8.05365 11.6399L8.00068 11.64L7.94712 11.6399L7.79793 11.6394C7.66912 11.6388 7.48413 11.6376 7.25867 11.6352C6.80801 11.6303 6.1944 11.6207 5.54391 11.6014C4.8945 11.5821 4.20298 11.553 3.59814 11.5089C3.01194 11.4661 2.45057 11.4058 2.09481 11.3107L2.0911 11.3097C1.67305 11.1953 1.29158 10.975 0.983521 10.6702C0.675467 10.3653 0.451253 9.9861 0.332542 9.5693C0.326516 9.5481 0.321541 9.5267 0.317635 9.505C0.0990761 8.2933 -0.00712919 7.06408 0.000371101 5.83289C-0.00543841 4.6109 0.100758 3.39096 0.31763 2.18835C0.320267 2.17373 0.323391 2.15921 0.326998 2.1448C0.434677 1.71459 0.653978 1.32042 0.962751 1.0021C1.27153 0.68378 1.65884 0.45257 2.08556 0.33185L2.09481 0.3293C2.45057 0.23415 3.01193 0.1739 3.59814 0.13114C4.20298 0.08702 4.8945 0.05793 5.54391 0.03863C6.1944 0.0193 6.80801 0.00964988 7.25867 0.00482988C7.48413 0.00241988 7.66912 0.00121011 7.79793 0.000610113L7.94712 8.01086e-05L8.00029 0ZM7.95007 1.33341L8.00037 1.33333L8.05083 1.3334L8.19685 1.33387C8.32345 1.33442 8.50587 1.3355 8.72845 1.33768C9.17387 1.34203 9.77898 1.35072 10.419 1.36809C11.0599 1.38548 11.731 1.41144 12.3098 1.44998C12.8955 1.48899 13.337 1.53813 13.5637 1.59145C13.7601 1.64915 13.9383 1.75672 14.081 1.90378C14.2217 2.04889 14.323 2.22747 14.3753 2.42251C14.5766 3.54672 14.6742 3.68705 14.667 4.82915L14.6671 5.83573C14.6711 6.96062 14.5735 8.0836 14.3753 9.1908C14.323 9.3859 14.2217 9.5645 14.081 9.7096C13.9367 9.8583 13.756 9.9667 13.5568 10.0239C13.3376 10.0816 12.8977 10.1359 12.3056 10.1791C11.728 10.2212 11.0578 10.2496 10.4173 10.2686C9.77773 10.2876 9.17301 10.2972 8.72783 10.3019C8.50538 10.3043 8.32308 10.3055 8.19658 10.3061L8.0507 10.3066H7.95007L7.80419 10.3061C7.67769 10.3055 7.49539 10.3043 7.27293 10.3019C6.82775 10.2972 6.22303 10.2876 5.58352 10.2686C4.94294 10.2496 4.27278 10.2212 3.69513 10.1791C3.10051 10.1357 2.65936 10.0811 2.44114 10.0231C2.24501 9.9691 2.06604 9.8656 1.92143 9.7225C1.7834 9.5859 1.68112 9.4176 1.62337 9.2325C1.42352 8.1121 1.3266 6.97566 1.33375 5.83752L1.33371 5.83004C1.32811 4.69654 1.42576 3.56491 1.62545 2.44917C1.67778 2.25413 1.77905 2.07555 1.91981 1.93044C2.0641 1.78169 2.24482 1.67333 2.44395 1.61613C2.66313 1.5584 3.10306 1.50413 3.69513 1.46094C4.27278 1.41881 4.94294 1.39041 5.58352 1.37137C6.22303 1.35237 6.82775 1.34285 7.27293 1.33809C7.49539 1.33571 7.67769 1.33452 7.80419 1.33393L7.95007 1.33341Z" fill="#C4C4C4" />
<path fill-rule="evenodd" clip-rule="evenodd" d="M6.1652 3.07707C6.3704 2.9577 6.62361 2.95646 6.82997 3.07382L10.6633 5.25382C10.8717 5.37233 11.0004 5.5936 11.0004 5.83333C11.0004 6.07306 10.8717 6.29433 10.6633 6.41284L6.82997 8.5928C6.62361 8.7102 6.3704 8.709 6.1652 8.5896C5.95999 8.4702 5.83374 8.2507 5.83374 8.0133V3.65333C5.83374 3.41593 5.95999 3.19644 6.1652 3.07707ZM7.16708 4.79939V6.86727L8.98516 5.83333L7.16708 4.79939Z" fill="#C1C7D0" />
</svg>